<svg id="svg" version="1.1" width="200" height="200" viewBox="0 0 400 400" xmlns="http://www.w3.org/2000/svg" xmlns:xlink="http://www.w3.org/1999/xlink" ><g id="svgg"><path id="path0" d="M0.000 200.000 L 0.000 400.000 200.000 400.000 L 400.000 400.000 400.000 200.000 L 400.000 0.000 200.000 0.000 L 0.000 0.000 0.000 200.000 M143.129 113.387 C 147.058 116.000,147.756 128.395,144.266 133.583 L 143.705 134.417 143.514 146.167 C 143.409 152.629,143.276 160.757,143.218 164.228 L 143.112 170.540 143.514 170.418 C 144.184 170.215,146.828 169.216,148.333 168.597 L 149.750 168.014 146.972 168.007 C 143.471 167.998,143.667 168.082,143.667 166.597 C 143.667 165.063,143.820 164.859,145.000 164.829 C 153.217 164.615,154.581 165.046,151.506 166.884 C 149.047 168.354,150.095 168.010,153.984 166.070 C 163.227 161.458,168.670 156.258,171.338 149.487 C 175.832 138.087,166.770 126.830,150.500 123.601 C 146.478 122.803,146.740 122.939,146.613 121.579 C 146.425 119.568,146.973 119.440,151.277 120.494 C 163.811 123.562,173.081 130.749,175.272 139.095 C 177.061 145.910,173.881 154.854,167.713 160.358 C 164.436 163.281,161.631 165.667,161.468 165.667 C 161.009 165.667,161.598 165.968,162.225 166.054 C 166.977 166.705,176.867 171.750,180.726 175.491 C 193.296 187.675,186.844 203.895,166.763 210.593 C 162.459 212.028,149.832 214.800,145.833 215.188 C 144.871 215.281,143.690 215.395,143.208 215.441 L 142.333 215.524 142.337 216.220 C 142.344 217.293,141.284 225.167,141.133 225.167 C 141.060 225.167,141.000 225.061,141.000 224.931 C 141.000 224.802,140.775 223.058,140.500 221.056 C 140.225 219.054,140.000 217.036,140.000 216.571 L 140.000 215.726 138.958 215.852 C 138.385 215.920,136.529 216.060,134.833 216.161 C 127.092 216.625,125.039 216.997,121.900 218.504 C 116.097 221.290,112.791 225.886,111.722 232.654 C 111.015 237.135,109.677 234.070,110.164 229.083 C 111.091 219.606,119.983 213.687,134.333 212.995 C 136.029 212.914,137.998 212.795,138.708 212.732 L 140.000 212.618 140.000 193.623 L 140.000 174.628 139.625 174.728 C 130.618 177.133,127.024 170.894,135.179 167.011 C 138.402 165.476,139.167 165.551,139.167 167.402 C 139.167 168.823,139.098 168.913,137.822 169.179 C 135.919 169.575,133.163 171.413,133.835 171.838 C 134.213 172.077,136.560 172.001,138.333 171.692 L 139.917 171.417 139.959 153.027 L 140.001 134.638 139.407 133.944 C 137.811 132.082,137.002 129.187,136.878 124.898 L 136.790 121.880 135.286 121.773 C 134.459 121.715,131.702 121.667,129.160 121.667 C 123.839 121.667,123.758 121.647,123.758 120.353 C 123.758 118.823,125.436 118.460,132.424 118.481 L 137.432 118.496 137.642 117.710 C 138.637 113.992,141.109 112.043,143.129 113.387 M140.873 117.258 C 138.558 118.879,138.558 127.121,140.873 128.742 C 142.812 130.101,144.768 125.887,144.215 121.542 C 143.784 118.150,142.305 116.255,140.873 117.258 M157.917 167.616 C 155.156 169.282,149.528 171.710,144.875 173.243 L 143.000 173.861 143.000 175.555 C 143.001 177.774,142.538 205.167,142.431 209.229 L 142.349 212.375 144.049 212.258 C 146.087 212.117,154.067 210.955,155.636 210.570 C 172.239 206.499,181.768 200.379,183.765 192.502 C 184.190 190.829,183.968 185.773,183.416 184.549 C 180.094 177.177,169.683 170.187,160.137 168.920 C 158.801 168.743,158.162 167.984,158.776 167.305 C 159.151 166.891,159.071 166.919,157.917 167.616 M198.657 171.995 C 202.857 174.138,201.347 186.811,195.553 198.044 C 194.857 199.393,195.025 202.035,196.090 206.481 C 197.021 210.368,197.602 210.683,199.410 208.280 C 202.113 204.689,203.237 201.446,203.405 196.750 C 203.654 189.813,204.373 187.833,206.646 187.833 C 208.369 187.833,208.818 189.083,208.299 192.432 C 207.854 195.309,207.760 201.879,208.146 203.207 C 208.624 204.852,209.611 205.250,211.009 204.363 C 212.664 203.312,213.403 201.714,215.024 195.671 C 215.907 192.383,216.263 191.425,216.930 190.551 C 218.149 188.953,220.760 189.207,221.553 191.000 C 221.668 191.259,221.778 193.499,221.845 196.917 C 221.982 203.863,222.229 205.259,223.302 205.135 C 224.376 205.011,225.281 201.931,225.496 197.667 C 225.850 190.630,228.846 187.166,234.577 187.167 C 242.895 187.168,240.946 199.790,232.375 201.430 C 230.797 201.732,230.874 201.578,231.565 203.034 C 234.395 208.996,240.092 207.721,242.513 200.583 C 243.148 198.711,244.001 198.191,244.923 199.114 C 245.783 199.974,243.633 205.069,241.626 206.927 C 237.319 210.915,229.958 209.571,227.232 204.299 C 226.916 203.687,226.962 203.654,226.194 205.053 C 225.002 207.224,224.148 207.764,222.113 207.630 C 218.610 207.401,217.188 205.184,217.172 199.931 C 217.166 198.094,217.107 198.018,216.750 199.391 C 216.193 201.528,214.770 204.188,213.553 205.367 C 211.640 207.221,206.998 207.422,205.029 205.736 C 204.638 205.401,204.298 205.155,204.274 205.189 C 204.249 205.222,204.116 205.550,203.977 205.917 C 202.593 209.562,198.963 213.070,196.583 213.062 C 191.543 213.044,189.595 207.309,189.599 192.500 C 189.601 180.792,191.664 173.195,195.176 171.955 C 196.256 171.573,197.867 171.592,198.657 171.995 M196.864 174.764 C 195.835 175.485,195.155 180.465,194.920 189.000 L 194.826 192.417 195.261 191.500 C 196.762 188.338,197.770 184.120,198.008 180.000 C 198.163 177.324,198.146 176.605,197.894 175.290 C 197.776 174.672,197.324 174.442,196.864 174.764 M233.604 189.745 C 231.772 190.398,230.890 192.433,230.585 196.708 C 230.451 198.581,230.381 198.517,232.090 198.078 C 235.121 197.300,236.803 195.336,236.966 192.384 C 237.115 189.680,236.076 188.864,233.604 189.745 M238.509 211.005 C 242.637 213.111,241.391 224.262,235.664 236.460 L 234.783 238.337 235.062 241.794 C 235.496 247.174,236.627 251.693,237.635 252.080 C 238.598 252.449,241.183 249.085,242.590 245.632 L 243.222 244.083 243.242 237.000 C 243.259 231.246,243.318 229.526,243.555 227.833 C 244.830 218.718,246.810 215.167,250.619 215.167 C 256.117 215.167,255.966 226.232,250.294 238.917 C 248.377 243.204,248.456 242.914,248.672 244.895 C 249.035 248.227,250.101 252.450,250.765 253.183 C 251.177 253.638,251.363 253.585,252.147 252.794 C 254.811 250.104,256.833 245.235,256.833 241.514 C 256.833 235.002,259.997 231.025,265.417 230.723 C 274.251 230.230,272.584 243.462,263.616 245.014 C 262.957 245.128,262.388 245.243,262.354 245.270 C 261.820 245.690,264.852 249.674,266.139 250.243 C 269.262 251.626,274.163 246.872,274.168 242.455 C 274.174 237.781,277.633 233.795,281.684 233.795 C 283.930 233.795,284.078 235.082,282.088 237.309 C 279.555 240.144,279.179 244.768,281.296 247.032 C 281.708 247.473,282.121 247.833,282.214 247.833 C 282.384 247.833,285.339 245.164,286.959 243.547 C 288.182 242.326,289.166 242.169,289.774 243.096 C 290.197 243.742,289.808 244.363,287.894 246.100 C 286.995 246.916,285.702 248.117,285.020 248.769 L 283.781 249.954 284.702 251.352 C 286.602 254.237,286.627 257.278,284.771 259.712 C 283.648 261.184,280.580 261.816,278.086 261.091 C 274.555 260.065,274.006 254.926,277.112 251.988 C 278.138 251.017,278.137 251.020,277.573 250.491 C 277.339 250.270,276.725 249.434,276.210 248.632 L 275.273 247.175 274.616 248.379 C 271.349 254.375,262.430 254.365,258.917 248.361 C 258.297 247.302,258.315 247.300,257.942 248.460 C 256.991 251.419,253.976 255.329,251.917 256.271 C 248.330 257.913,245.030 254.958,244.079 249.250 L 243.968 248.583 243.609 249.221 C 238.944 257.509,233.032 257.373,230.842 248.927 C 230.559 247.833,230.296 246.907,230.258 246.870 C 230.221 246.832,229.729 247.185,229.165 247.655 C 225.585 250.634,219.527 250.634,217.556 247.655 C 217.141 247.028,216.833 246.818,216.833 247.162 C 216.833 247.250,216.460 247.955,216.004 248.728 C 212.552 254.571,203.526 254.115,200.227 247.930 L 199.705 246.950 198.936 248.283 C 195.145 254.855,186.075 254.320,182.618 247.320 C 178.572 239.130,182.945 230.184,190.738 230.706 C 198.852 231.249,196.175 243.564,187.617 245.063 L 186.483 245.261 187.175 246.644 C 188.464 249.219,190.254 250.630,191.984 250.434 C 195.625 250.022,198.496 245.946,198.503 241.178 C 198.513 234.477,202.311 230.320,208.071 230.706 C 216.053 231.240,213.440 243.580,205.032 245.053 C 203.798 245.270,203.786 245.358,204.756 247.101 C 206.082 249.483,207.640 250.624,209.305 250.436 C 212.760 250.044,215.593 246.235,215.907 241.559 C 216.425 233.842,222.367 230.265,228.600 233.917 C 228.990 234.146,229.334 234.333,229.363 234.332 C 229.393 234.332,229.432 232.605,229.450 230.496 C 229.547 219.596,231.516 212.520,234.878 210.994 C 235.862 210.547,237.623 210.552,238.509 211.005 M178.836 212.208 C 180.433 213.018,180.468 213.944,179.012 216.833 C 176.448 221.918,175.828 226.327,174.655 247.833 C 174.341 253.601,173.677 255.250,171.669 255.250 C 170.045 255.250,169.429 253.871,168.840 248.913 C 167.818 240.320,167.043 237.323,163.895 229.790 C 161.529 224.129,160.444 222.160,158.503 220.000 L 157.979 219.417 158.074 220.667 C 158.787 230.087,157.991 247.233,156.662 251.098 C 154.663 256.908,146.331 258.980,143.745 254.310 C 142.782 252.572,143.139 249.477,144.433 248.341 C 145.977 246.985,147.779 248.534,146.750 250.333 C 145.929 251.770,146.792 253.833,148.214 253.833 C 150.590 253.833,151.976 251.896,152.751 247.493 C 153.631 242.499,153.686 218.562,152.818 218.789 C 151.934 219.020,150.182 221.099,149.348 222.908 C 148.192 225.413,148.125 227.064,149.065 229.873 C 149.838 232.184,149.579 232.948,147.965 233.112 C 144.576 233.457,143.673 224.683,146.625 220.092 C 149.579 215.497,153.567 213.804,158.015 215.259 C 159.558 215.764,162.232 218.483,163.865 221.211 C 165.202 223.441,169.159 233.238,169.941 236.250 L 170.417 238.083 170.452 236.250 C 170.602 228.533,171.241 223.984,173.088 217.508 C 174.406 212.884,176.450 210.999,178.836 212.208 M236.699 213.762 C 235.645 214.501,234.918 219.610,234.749 227.465 L 234.664 231.417 235.101 230.500 C 236.566 227.430,237.636 222.881,237.822 218.939 C 238.028 214.589,237.697 213.064,236.699 213.762 M250.277 218.470 C 249.249 219.607,248.636 224.247,248.426 232.500 L 248.334 236.083 248.828 235.083 C 251.652 229.359,252.850 215.627,250.277 218.470 M189.273 233.244 C 187.428 233.902,186.444 236.076,186.221 239.985 L 186.113 241.886 186.933 241.789 C 190.440 241.374,192.667 238.901,192.667 235.423 C 192.667 233.150,191.550 232.432,189.273 233.244 M206.583 233.245 C 204.741 233.901,203.367 237.359,203.535 240.916 L 203.583 241.947 204.620 241.735 C 208.034 241.037,209.803 239.026,209.961 235.667 C 210.073 233.271,208.891 232.423,206.583 233.245 M265.173 233.196 C 263.246 233.748,262.226 235.926,262.048 239.864 L 261.953 241.978 263.102 241.721 C 266.108 241.050,267.813 239.390,268.344 236.620 C 268.887 233.781,267.679 232.477,265.173 233.196 M223.521 235.174 C 221.085 235.720,219.957 243.381,221.859 246.459 C 223.121 248.501,226.490 247.440,229.222 244.139 L 230.027 243.167 229.817 240.669 L 229.608 238.172 228.679 237.249 C 226.993 235.574,225.110 234.817,223.521 235.174 M279.374 253.875 C 278.621 254.653,278.333 255.472,278.333 256.836 C 278.333 258.686,278.599 259.016,280.250 259.216 C 281.675 259.388,282.471 257.137,281.631 255.311 C 281.268 254.524,280.287 253.333,280.001 253.333 C 279.945 253.333,279.663 253.577,279.374 253.875 " stroke="none" fill="#f0fbfb" fill-rule="evenodd"></path><path id="path1" d="M140.573 113.312 C 136.319 115.906,135.620 129.469,139.512 133.891 L 140.169 134.637 140.154 176.309 L 140.138 217.981 140.599 221.324 C 140.852 223.162,141.104 224.667,141.159 224.667 C 141.483 224.667,142.212 216.893,142.269 212.838 C 142.444 200.318,142.690 184.977,142.830 177.833 C 142.918 173.387,143.114 161.800,143.267 152.083 L 143.544 134.417 144.266 133.333 C 148.741 126.622,145.708 110.181,140.573 113.312 M142.561 117.179 C 145.112 119.186,144.944 127.567,142.325 128.921 C 139.052 130.614,137.602 120.196,140.707 117.296 C 141.301 116.740,141.952 116.699,142.561 117.179 M235.858 210.842 C 233.099 211.398,231.389 214.454,230.349 220.683 C 229.769 224.156,229.662 225.414,229.555 230.042 C 229.498 232.494,229.428 234.500,229.398 234.500 C 229.369 234.500,228.986 234.272,228.547 233.993 C 226.426 232.645,222.598 232.282,220.535 233.234 C 217.972 234.417,216.389 237.407,216.024 241.750 C 215.634 246.405,213.038 249.845,209.408 250.516 C 207.698 250.832,205.821 249.465,204.589 247.006 C 203.659 245.148,203.626 245.260,205.195 244.951 C 212.380 243.536,215.713 233.412,209.731 231.174 C 208.002 230.527,204.656 230.888,202.912 231.911 C 200.280 233.453,198.668 236.928,198.580 241.250 C 198.547 242.847,198.450 243.809,198.271 244.298 C 195.737 251.238,190.201 252.639,187.305 247.071 C 186.319 245.175,186.311 245.234,187.591 245.011 C 193.200 244.034,197.032 237.792,194.823 233.229 C 193.264 230.009,187.046 230.021,184.024 233.251 C 180.590 236.922,180.248 243.442,183.238 248.240 C 186.947 254.190,195.530 254.259,198.751 248.365 C 199.749 246.539,199.585 246.562,200.500 248.114 C 204.132 254.268,212.800 254.316,216.167 248.201 C 217.048 246.600,216.963 246.636,217.626 247.576 C 219.798 250.657,225.446 250.627,229.162 247.515 L 230.394 246.483 230.951 248.700 C 231.881 252.406,232.977 254.085,234.960 254.843 C 237.885 255.961,240.142 254.594,243.070 249.931 C 243.846 248.695,243.998 248.531,244.065 248.860 C 245.159 254.288,246.993 256.565,250.247 256.536 C 252.843 256.512,256.030 253.117,257.752 248.541 L 258.285 247.125 258.841 248.104 C 262.301 254.194,271.068 254.292,274.549 248.279 L 275.304 246.974 275.976 248.126 C 276.346 248.759,276.990 249.657,277.408 250.121 C 278.342 251.161,278.361 251.005,277.173 252.104 C 273.510 255.495,274.772 260.673,279.388 261.197 C 283.444 261.658,285.407 260.165,286.046 256.133 C 286.342 254.265,285.915 253.095,284.001 250.531 L 283.589 249.980 284.925 248.698 C 285.660 247.993,287.027 246.718,287.964 245.864 C 290.063 243.948,290.306 243.287,289.125 242.707 C 288.441 242.370,288.055 242.632,285.141 245.406 C 282.047 248.352,282.293 248.228,281.376 247.292 C 279.236 245.106,279.407 240.063,281.705 237.547 C 283.505 235.576,283.708 235.026,282.924 234.242 C 281.468 232.786,276.402 235.492,274.952 238.500 C 274.497 239.443,274.044 242.184,274.240 242.803 C 274.370 243.213,273.603 245.529,272.970 246.635 C 271.279 249.591,268.045 251.286,266.035 250.268 C 264.697 249.590,261.705 245.685,262.196 245.255 C 262.226 245.229,262.840 245.089,263.560 244.944 C 270.912 243.465,274.180 233.462,268.060 231.172 C 266.343 230.530,263.399 230.835,261.488 231.853 C 258.712 233.333,257.004 236.954,257.001 241.365 C 256.999 244.438,255.801 247.929,253.664 251.082 C 251.331 254.526,250.578 254.310,249.499 249.893 C 248.217 244.643,248.219 243.282,249.510 240.492 C 256.502 225.385,256.206 213.125,248.911 215.611 C 244.874 216.987,242.517 227.656,243.327 240.888 C 243.474 243.285,243.466 243.398,243.060 244.638 C 241.830 248.394,238.749 252.674,237.594 252.231 C 236.563 251.835,235.362 247.273,234.988 242.333 C 234.672 238.157,234.640 238.395,235.872 235.667 C 242.547 220.882,242.541 209.496,235.858 210.842 M176.667 212.121 C 173.421 213.347,170.841 223.246,170.605 235.379 C 170.547 238.371,170.463 238.980,170.246 237.970 C 169.584 234.880,166.484 226.635,164.463 222.583 C 159.970 213.582,152.524 212.234,147.202 219.459 C 143.889 223.956,144.244 233.000,147.733 233.000 C 149.410 233.000,149.712 232.209,148.915 229.900 C 147.889 226.930,147.987 225.506,149.421 222.552 C 150.462 220.406,152.707 218.151,153.255 218.700 C 153.642 219.087,153.693 237.834,153.323 243.500 C 152.857 250.617,151.441 253.639,148.494 253.805 C 146.658 253.909,145.911 252.478,146.665 250.301 C 147.224 248.684,146.927 248.000,145.664 248.000 C 143.181 248.000,142.482 253.064,144.643 255.390 C 147.537 258.505,154.912 255.930,156.560 251.228 C 157.789 247.722,158.532 232.978,158.004 222.583 C 157.830 219.157,157.874 219.020,158.788 220.115 C 160.502 222.169,161.905 224.708,163.805 229.196 C 166.847 236.378,167.947 240.498,168.914 248.333 C 169.663 254.401,170.533 256.033,172.487 255.030 C 173.698 254.409,174.221 252.817,174.416 249.167 C 174.473 248.112,174.624 245.563,174.753 243.500 C 174.881 241.438,175.032 238.925,175.088 237.917 C 175.685 227.106,176.858 220.780,179.088 216.360 C 180.005 214.540,180.139 213.780,179.671 213.032 C 179.151 212.199,177.657 211.746,176.667 212.121 M237.440 213.628 C 239.042 214.661,237.658 225.022,235.148 230.792 C 234.552 232.161,234.482 231.882,234.584 228.542 C 234.930 217.178,235.811 212.577,237.440 213.628 M251.100 218.128 C 252.655 219.166,251.680 228.216,249.390 234.000 C 248.349 236.630,248.333 236.623,248.333 233.539 C 248.333 224.036,249.577 217.110,251.100 218.128 M192.049 233.169 C 193.439 234.263,192.933 237.794,191.075 239.965 C 190.168 241.025,187.948 242.000,186.444 242.000 L 185.957 242.000 186.074 240.292 C 186.395 235.586,187.498 233.480,189.888 233.007 C 191.058 232.776,191.600 232.817,192.049 233.169 M209.382 233.169 C 210.766 234.258,210.262 237.849,208.430 239.951 C 207.312 241.235,203.530 242.625,203.478 241.771 C 203.291 238.696,203.961 235.522,205.077 234.202 C 206.077 233.019,208.463 232.447,209.382 233.169 M267.933 233.400 C 269.326 234.793,268.289 239.024,266.167 240.606 C 265.367 241.202,263.154 242.000,262.301 242.000 L 261.785 242.000 261.884 239.875 C 262.079 235.660,263.245 233.460,265.520 233.013 C 266.956 232.731,267.324 232.790,267.933 233.400 M225.787 235.236 C 227.496 235.691,229.639 237.597,229.758 238.768 C 229.794 239.125,229.907 240.263,230.010 241.298 L 230.196 243.179 229.060 244.449 C 224.419 249.634,220.336 248.231,220.717 241.583 C 221.012 236.435,222.640 234.398,225.787 235.236 M281.673 255.232 C 282.955 257.798,281.364 259.999,278.908 259.057 C 277.619 258.562,277.980 254.950,279.448 253.661 L 280.041 253.141 280.610 253.693 C 280.923 253.996,281.402 254.689,281.673 255.232 " stroke="none" fill="#bc9b33" fill-rule="evenodd"></path><path id="path2" d="M125.785 118.890 C 124.025 119.279,123.840 119.417,123.836 120.349 C 123.831 121.469,123.710 121.448,130.682 121.547 L 136.948 121.636 137.203 120.193 C 137.343 119.399,137.426 118.694,137.386 118.625 C 137.197 118.299,127.458 118.521,125.785 118.890 M146.922 120.059 C 146.622 120.278,146.586 122.308,146.877 122.599 C 146.939 122.661,148.473 123.026,150.286 123.412 C 164.809 126.495,173.925 135.497,172.510 145.357 C 171.035 155.643,160.509 164.954,144.375 170.243 L 143.000 170.694 143.000 172.180 C 143.000 172.998,143.057 173.667,143.128 173.667 C 144.050 173.667,151.026 170.949,154.500 169.237 C 161.061 166.002,161.882 165.443,167.534 160.361 C 173.810 154.720,176.985 145.813,175.118 139.093 C 173.517 133.333,169.606 128.946,162.421 124.849 C 159.332 123.089,151.668 120.400,148.833 120.082 C 148.329 120.026,147.760 119.949,147.569 119.910 C 147.377 119.872,147.086 119.939,146.922 120.059 M144.626 164.958 C 143.888 165.031,143.789 165.266,143.866 166.757 L 143.917 167.750 146.819 167.796 L 149.722 167.841 151.278 166.913 C 152.814 165.996,153.324 165.307,152.625 165.092 C 152.328 165.000,145.375 164.884,144.626 164.958 M136.796 166.403 C 134.505 167.211,132.108 168.798,131.140 170.146 C 128.814 173.384,133.354 175.955,139.125 174.668 L 140.000 174.472 140.000 172.986 C 140.000 171.361,140.035 171.404,138.917 171.662 C 136.807 172.147,134.300 172.225,133.654 171.825 C 132.989 171.414,135.833 169.497,137.823 169.015 L 138.917 168.750 139.031 167.588 C 139.204 165.847,138.871 165.670,136.796 166.403 M159.790 166.754 C 158.079 167.901,158.323 168.482,160.667 168.843 C 167.361 169.873,176.405 174.746,180.055 179.291 C 181.414 180.983,183.636 184.432,183.819 185.132 C 184.158 186.435,184.227 191.325,183.923 192.500 C 181.404 202.227,165.205 210.481,145.167 212.250 C 144.571 212.303,143.690 212.386,143.208 212.435 L 142.333 212.524 142.333 213.929 C 142.333 214.701,142.397 215.333,142.476 215.333 C 149.054 215.333,166.598 211.146,172.499 208.167 C 186.348 201.176,190.719 189.917,183.756 179.167 C 180.451 174.063,171.080 168.239,163.089 166.323 C 161.234 165.879,161.060 165.901,159.790 166.754 M195.727 171.848 C 191.408 173.100,189.051 183.240,189.822 197.250 C 190.474 209.088,192.169 213.008,196.631 212.998 C 199.044 212.993,202.934 208.947,204.213 205.112 C 204.252 204.995,204.524 205.133,204.891 205.455 C 207.191 207.475,211.687 207.226,213.772 204.964 C 215.013 203.617,216.069 201.417,216.755 198.750 L 217.140 197.250 217.156 198.500 C 217.227 204.076,217.987 206.109,220.401 207.177 C 222.964 208.311,224.845 207.508,226.182 204.709 C 226.869 203.270,226.786 203.280,227.500 204.536 C 229.872 208.709,235.437 210.393,239.705 208.231 C 242.753 206.686,246.376 199.847,244.579 199.029 C 243.558 198.563,243.216 198.859,242.589 200.750 C 240.256 207.788,234.311 209.062,231.452 203.135 C 230.662 201.498,230.604 201.628,232.259 201.307 C 240.604 199.689,242.843 187.156,234.785 187.168 C 229.275 187.176,225.667 191.171,225.667 197.265 C 225.667 202.235,223.971 206.533,222.605 205.024 C 222.014 204.371,221.806 202.489,221.693 196.742 C 221.572 190.655,221.576 190.680,220.449 189.993 C 218.308 188.687,216.579 190.257,215.500 194.487 C 213.614 201.885,211.900 205.000,209.713 205.000 C 207.827 205.000,207.158 200.297,208.090 193.583 C 208.733 188.946,208.467 187.944,206.592 187.944 C 204.508 187.944,203.760 190.013,203.559 196.333 C 203.408 201.112,202.196 204.783,199.661 208.147 C 197.721 210.722,197.180 210.632,196.256 207.583 C 194.893 203.088,194.629 199.592,195.517 197.810 C 202.650 183.506,202.761 169.810,195.727 171.848 M197.992 175.294 C 198.396 176.751,198.117 182.218,197.495 185.017 C 196.912 187.642,195.155 192.667,194.821 192.667 C 194.391 192.667,194.998 181.127,195.600 177.834 C 196.171 174.716,197.453 173.354,197.992 175.294 M236.507 189.673 C 238.036 191.203,236.858 195.707,234.544 197.175 C 233.760 197.672,232.342 198.181,231.125 198.402 L 230.500 198.515 230.500 196.834 C 230.500 192.963,231.650 190.275,233.604 189.578 C 234.624 189.215,236.096 189.263,236.507 189.673 M139.150 212.739 C 139.110 212.779,137.466 212.896,135.497 212.998 C 123.302 213.632,114.677 217.565,111.664 223.868 C 110.091 227.159,109.528 234.831,110.875 234.636 C 111.201 234.589,111.268 234.397,111.534 232.750 C 113.227 222.261,119.869 216.967,132.333 216.173 C 133.846 216.077,136.190 215.913,137.542 215.808 L 140.000 215.617 140.000 214.142 C 140.000 212.706,139.692 212.197,139.150 212.739 " stroke="none" fill="#147ccc" fill-rule="evenodd"></path><path id="path3" d="M142.347 113.050 C 142.385 113.078,142.642 113.233,142.917 113.394 L 143.417 113.686 143.023 113.343 C 142.807 113.154,142.551 113.000,142.454 113.000 C 142.357 113.000,142.309 113.023,142.347 113.050 M139.658 113.958 L 139.083 114.583 139.708 114.009 C 140.290 113.474,140.410 113.333,140.283 113.333 C 140.255 113.333,139.974 113.615,139.658 113.958 M138.495 115.510 C 138.168 116.121,137.500 117.999,137.504 118.295 C 137.507 118.454,137.697 118.031,137.927 117.355 C 138.157 116.680,138.457 115.911,138.593 115.647 C 138.730 115.383,138.805 115.167,138.760 115.167 C 138.715 115.167,138.596 115.321,138.495 115.510 M141.105 116.965 C 141.060 117.038,141.267 117.069,141.565 117.034 C 141.964 116.987,142.256 117.089,142.678 117.421 L 143.250 117.871 142.706 117.352 C 142.183 116.854,141.305 116.642,141.105 116.965 M143.565 118.905 C 143.758 119.398,143.946 119.773,143.982 119.738 C 144.072 119.651,143.506 118.190,143.344 118.090 C 143.272 118.045,143.372 118.412,143.565 118.905 M139.048 121.750 C 139.049 122.208,139.081 122.376,139.120 122.123 C 139.158 121.869,139.157 121.494,139.117 121.289 C 139.078 121.084,139.046 121.292,139.048 121.750 M136.881 122.583 C 136.882 123.042,136.915 123.209,136.953 122.956 C 136.991 122.703,136.990 122.328,136.951 122.123 C 136.911 121.918,136.880 122.125,136.881 122.583 M144.372 123.000 C 144.372 123.321,144.406 123.452,144.448 123.292 C 144.490 123.131,144.490 122.869,144.448 122.708 C 144.406 122.548,144.372 122.679,144.372 123.000 M139.050 124.167 C 139.050 124.671,139.081 124.877,139.119 124.625 C 139.158 124.373,139.158 123.960,139.119 123.708 C 139.081 123.456,139.050 123.662,139.050 124.167 M136.887 125.833 C 136.887 126.429,136.917 126.673,136.954 126.375 C 136.991 126.077,136.991 125.590,136.954 125.292 C 136.917 124.994,136.887 125.237,136.887 125.833 M143.761 126.629 C 143.693 126.930,143.375 127.566,143.054 128.044 C 142.705 128.563,142.610 128.786,142.818 128.597 C 143.258 128.199,144.057 126.586,143.958 126.299 C 143.917 126.180,143.828 126.329,143.761 126.629 M137.015 127.437 C 136.984 128.498,138.374 133.000,138.732 133.000 C 138.777 133.000,138.636 132.595,138.417 132.100 C 137.919 130.973,137.519 129.608,137.244 128.092 C 137.122 127.421,137.024 127.140,137.015 127.437 M144.111 133.554 L 143.500 134.441 143.536 138.512 L 143.572 142.583 143.661 138.417 C 143.750 134.252,143.750 134.250,144.184 133.667 C 144.682 132.996,144.881 132.667,144.788 132.667 C 144.752 132.667,144.447 133.066,144.111 133.554 M139.541 134.092 L 139.999 134.600 140.042 153.008 L 140.085 171.417 140.126 152.990 L 140.167 134.562 139.625 134.073 L 139.083 133.583 139.541 134.092 M143.407 147.833 C 143.407 150.446,143.430 151.515,143.458 150.208 C 143.486 148.902,143.486 146.765,143.458 145.458 C 143.430 144.152,143.407 145.221,143.407 147.833 M143.240 157.333 C 143.240 159.946,143.263 161.015,143.291 159.708 C 143.319 158.402,143.319 156.265,143.291 154.958 C 143.263 153.652,143.240 154.721,143.240 157.333 M143.072 166.500 C 143.072 168.746,143.096 169.665,143.125 168.542 C 143.153 167.419,143.153 165.581,143.125 164.458 C 143.096 163.335,143.072 164.254,143.072 166.500 M142.905 177.583 C 142.905 179.692,142.929 180.531,142.958 179.449 C 142.987 178.367,142.987 176.642,142.958 175.616 C 142.928 174.590,142.905 175.475,142.905 177.583 M140.081 193.667 C 140.081 204.162,140.101 208.456,140.125 203.208 C 140.149 197.960,140.149 189.373,140.125 184.125 C 140.101 178.877,140.081 183.171,140.081 193.667 M142.740 186.667 C 142.740 189.188,142.763 190.219,142.791 188.958 C 142.820 187.698,142.820 185.635,142.791 184.375 C 142.763 183.115,142.740 184.146,142.740 186.667 M142.573 196.083 C 142.573 198.650,142.596 199.677,142.625 198.365 C 142.653 197.053,142.653 194.953,142.625 193.698 C 142.596 192.443,142.573 193.517,142.573 196.083 M142.406 206.333 C 142.406 208.671,142.429 209.627,142.458 208.458 C 142.487 207.290,142.487 205.377,142.458 204.208 C 142.429 203.040,142.406 203.996,142.406 206.333 M234.896 210.986 C 234.517 211.158,234.157 211.382,234.094 211.483 C 234.031 211.584,234.239 211.515,234.555 211.328 C 234.871 211.142,235.457 210.925,235.856 210.846 C 236.447 210.730,236.490 210.700,236.083 210.689 C 235.808 210.681,235.274 210.815,234.896 210.986 M237.181 210.726 C 237.219 210.759,237.512 210.834,237.833 210.892 C 238.244 210.968,238.343 210.951,238.167 210.836 C 237.941 210.688,237.015 210.585,237.181 210.726 M238.583 211.107 C 239.432 211.860,239.745 212.080,239.417 211.693 C 239.236 211.478,238.936 211.225,238.752 211.131 C 238.568 211.036,238.492 211.026,238.583 211.107 M177.294 211.951 C 177.501 211.991,177.801 211.990,177.960 211.948 C 178.120 211.906,177.950 211.874,177.583 211.875 C 177.217 211.877,177.086 211.911,177.294 211.951 M179.391 212.617 C 179.560 212.815,179.800 213.264,179.925 213.614 C 180.050 213.964,180.155 214.115,180.159 213.950 C 180.169 213.551,179.762 212.783,179.386 212.491 C 179.101 212.270,179.102 212.277,179.391 212.617 M231.972 214.258 C 231.691 214.859,231.490 215.378,231.525 215.413 C 231.560 215.449,231.825 214.957,232.114 214.322 C 232.403 213.687,232.605 213.167,232.561 213.167 C 232.518 213.167,232.253 213.658,231.972 214.258 M174.707 213.542 C 174.246 214.118,173.152 216.757,173.176 217.234 C 173.181 217.335,173.389 216.854,173.638 216.167 C 173.886 215.479,174.290 214.560,174.533 214.125 C 174.971 213.344,175.033 213.135,174.707 213.542 M235.997 214.591 C 235.785 215.148,235.598 215.939,235.702 215.833 C 235.831 215.704,236.323 214.167,236.236 214.167 C 236.193 214.167,236.086 214.357,235.997 214.591 M154.208 214.786 C 154.460 214.824,154.873 214.824,155.125 214.786 C 155.377 214.748,155.171 214.717,154.667 214.717 C 154.162 214.717,153.956 214.748,154.208 214.786 M240.705 215.167 C 240.705 215.487,240.740 215.619,240.782 215.458 C 240.823 215.298,240.823 215.035,240.782 214.875 C 240.740 214.715,240.705 214.846,240.705 215.167 M155.875 214.948 C 156.035 214.990,156.298 214.990,156.458 214.948 C 156.619 214.906,156.487 214.872,156.167 214.872 C 155.846 214.872,155.715 214.906,155.875 214.948 M237.875 215.417 C 237.877 215.783,237.911 215.914,237.951 215.706 C 237.991 215.499,237.990 215.199,237.948 215.040 C 237.906 214.880,237.874 215.050,237.875 215.417 M157.712 215.325 C 158.241 215.495,158.954 215.833,159.296 216.079 L 159.917 216.524 159.347 216.018 C 158.796 215.529,157.550 214.991,157.012 215.009 C 156.868 215.014,157.183 215.156,157.712 215.325 M179.667 215.035 C 179.667 215.085,179.553 215.398,179.414 215.730 C 179.276 216.062,179.200 216.333,179.246 216.333 C 179.377 216.333,179.847 215.125,179.752 215.030 C 179.705 214.983,179.667 214.985,179.667 215.035 M250.667 215.327 C 251.847 215.450,252.319 215.643,253.083 216.312 L 253.582 216.750 253.166 216.270 C 252.556 215.566,251.577 215.170,250.500 215.194 L 249.583 215.214 250.667 215.327 M142.223 216.500 C 142.223 217.188,142.252 217.469,142.288 217.125 C 142.324 216.781,142.324 216.219,142.288 215.875 C 142.252 215.531,142.223 215.813,142.223 216.500 M248.583 215.565 C 247.935 215.848,247.101 216.556,246.631 217.221 C 246.422 217.517,246.660 217.341,247.171 216.819 C 247.753 216.226,248.356 215.793,248.833 215.624 C 249.246 215.479,249.471 215.357,249.333 215.353 C 249.196 215.349,248.858 215.445,248.583 215.565 M140.056 216.833 C 140.056 217.521,140.085 217.802,140.121 217.458 C 140.157 217.115,140.157 216.552,140.121 216.208 C 140.085 215.865,140.056 216.146,140.056 216.833 M150.060 216.396 C 148.957 217.220,147.771 218.428,147.092 219.417 L 146.635 220.083 147.109 219.500 C 148.127 218.248,149.408 216.989,150.268 216.397 C 151.092 215.829,151.278 215.667,151.102 215.667 C 151.066 215.667,150.597 215.995,150.060 216.396 M231.025 216.872 C 230.827 217.538,230.670 218.196,230.675 218.333 C 230.680 218.471,230.870 217.954,231.097 217.186 C 231.325 216.417,231.482 215.760,231.447 215.725 C 231.412 215.690,231.222 216.206,231.025 216.872 M240.893 217.500 C 240.893 218.371,240.922 218.727,240.956 218.292 C 240.990 217.856,240.990 217.144,240.956 216.708 C 240.922 216.273,240.893 216.629,240.893 217.500 M160.660 217.208 C 161.350 217.944,161.500 218.077,161.500 217.951 C 161.500 217.925,161.144 217.568,160.708 217.160 L 159.917 216.417 160.660 217.208 M178.658 217.183 C 178.467 217.558,178.339 217.894,178.374 217.929 C 178.409 217.964,178.600 217.657,178.800 217.246 C 179.254 216.311,179.131 216.256,178.658 217.183 M237.890 218.083 C 237.891 218.817,237.920 219.096,237.956 218.704 C 237.991 218.312,237.990 217.712,237.954 217.371 C 237.919 217.029,237.890 217.350,237.890 218.083 M245.909 218.349 C 245.762 218.632,245.672 218.894,245.708 218.930 C 245.744 218.966,245.898 218.734,246.051 218.415 C 246.394 217.696,246.275 217.641,245.909 218.349 M251.432 218.830 C 251.495 219.057,251.606 219.995,251.678 220.913 L 251.810 222.583 251.757 220.811 C 251.728 219.836,251.617 218.898,251.511 218.727 C 251.341 218.454,251.331 218.467,251.432 218.830 M153.300 222.917 C 153.344 225.300,153.407 227.281,153.440 227.319 C 153.543 227.439,153.467 222.003,153.341 220.250 C 153.274 219.323,153.256 220.506,153.300 222.917 M151.446 219.693 L 150.583 220.552 151.500 219.746 C 152.004 219.302,152.448 218.916,152.486 218.886 C 152.524 218.857,152.500 218.833,152.432 218.833 C 152.364 218.833,151.920 219.220,151.446 219.693 M157.958 219.430 C 157.890 219.499,157.844 219.824,157.857 220.153 L 157.881 220.750 157.982 220.083 L 158.083 219.417 158.833 220.393 C 159.945 221.841,160.254 222.177,159.696 221.333 C 158.972 220.238,158.102 219.285,157.958 219.430 M235.042 219.917 C 235.044 220.283,235.078 220.414,235.118 220.206 C 235.158 219.999,235.156 219.699,235.115 219.540 C 235.073 219.380,235.040 219.550,235.042 219.917 M240.712 220.000 C 240.712 220.412,240.745 220.581,240.784 220.375 C 240.824 220.169,240.824 219.831,240.784 219.625 C 240.745 219.419,240.712 219.588,240.712 220.000 M163.155 220.278 C 163.347 220.569,163.839 221.431,164.249 222.195 C 164.659 222.959,164.996 223.517,164.997 223.436 C 165.002 223.178,163.630 220.709,163.211 220.221 L 162.806 219.750 163.155 220.278 M150.205 221.125 C 149.774 221.748,149.634 222.000,149.718 222.000 C 149.757 222.000,149.988 221.700,150.230 221.333 C 150.723 220.588,150.702 220.408,150.205 221.125 M158.062 222.833 C 158.062 223.796,158.089 224.190,158.123 223.708 C 158.157 223.227,158.157 222.440,158.123 221.958 C 158.089 221.477,158.062 221.871,158.062 222.833 M230.039 221.833 C 230.039 222.154,230.073 222.285,230.115 222.125 C 230.157 221.965,230.157 221.702,230.115 221.542 C 230.073 221.381,230.039 221.512,230.039 221.833 M234.879 222.000 C 234.879 222.412,234.911 222.581,234.951 222.375 C 234.991 222.169,234.991 221.831,234.951 221.625 C 234.911 221.419,234.879 221.588,234.879 222.000 M229.872 223.000 C 229.872 223.321,229.906 223.452,229.948 223.292 C 229.990 223.131,229.990 222.869,229.948 222.708 C 229.906 222.548,229.872 222.679,229.872 223.000 M251.532 223.917 C 251.513 224.558,251.463 225.496,251.421 226.000 L 251.344 226.917 251.511 226.000 C 251.603 225.496,251.653 224.558,251.622 223.917 L 251.566 222.750 251.532 223.917 M148.559 224.607 C 148.082 226.191,148.157 227.639,148.820 229.625 C 149.133 230.564,149.420 231.302,149.458 231.265 C 149.495 231.227,149.286 230.500,148.994 229.649 C 148.302 227.633,148.222 226.588,148.638 225.000 C 149.030 223.504,148.975 223.227,148.559 224.607 M234.723 225.000 C 234.723 225.688,234.752 225.969,234.788 225.625 C 234.824 225.281,234.824 224.719,234.788 224.375 C 234.752 224.031,234.723 224.313,234.723 225.000 M229.709 224.583 C 229.711 224.950,229.745 225.080,229.785 224.873 C 229.824 224.666,229.823 224.366,229.781 224.206 C 229.739 224.047,229.707 224.217,229.709 224.583 M141.000 224.917 C 141.000 225.054,141.075 225.167,141.167 225.167 C 141.258 225.167,141.333 225.054,141.333 224.917 C 141.333 224.779,141.258 224.667,141.167 224.667 C 141.075 224.667,141.000 224.779,141.000 224.917 M158.241 230.750 C 158.241 233.775,158.264 235.036,158.291 233.552 C 158.319 232.068,158.319 229.593,158.291 228.052 C 158.264 226.511,158.241 227.725,158.241 230.750 M236.386 227.039 C 236.094 227.977,235.882 228.771,235.915 228.804 C 236.000 228.889,237.023 225.652,236.965 225.478 C 236.938 225.399,236.678 226.101,236.386 227.039 M144.872 226.333 C 144.872 226.654,144.906 226.785,144.948 226.625 C 144.990 226.465,144.990 226.202,144.948 226.042 C 144.906 225.881,144.872 226.012,144.872 226.333 M229.550 226.667 C 229.550 227.171,229.581 227.377,229.619 227.125 C 229.658 226.873,229.658 226.460,229.619 226.208 C 229.581 225.956,229.550 226.162,229.550 226.667 M162.345 226.083 C 162.345 226.175,162.452 226.438,162.583 226.667 C 162.714 226.896,162.822 227.008,162.822 226.917 C 162.822 226.825,162.714 226.563,162.583 226.333 C 162.452 226.104,162.345 225.992,162.345 226.083 M248.545 227.333 C 248.545 227.746,248.578 227.915,248.618 227.708 C 248.657 227.502,248.657 227.165,248.618 226.958 C 248.578 226.752,248.545 226.921,248.545 227.333 M162.845 227.250 C 162.845 227.342,162.952 227.604,163.083 227.833 C 163.214 228.063,163.322 228.175,163.322 228.083 C 163.322 227.992,163.214 227.729,163.083 227.500 C 162.952 227.271,162.845 227.158,162.845 227.250 M153.572 232.167 C 153.572 234.321,153.595 235.202,153.624 234.125 C 153.653 233.048,153.653 231.285,153.624 230.208 C 153.595 229.131,153.572 230.012,153.572 232.167 M163.372 228.500 C 163.746 229.526,164.894 232.161,164.945 232.111 C 165.017 232.038,163.549 228.487,163.388 228.345 C 163.329 228.293,163.321 228.362,163.372 228.500 M235.444 229.694 C 235.294 230.078,235.198 230.420,235.231 230.453 C 235.264 230.487,235.417 230.201,235.569 229.819 C 235.722 229.438,235.818 229.096,235.783 229.061 C 235.748 229.025,235.595 229.311,235.444 229.694 M229.400 231.667 C 229.400 232.996,229.425 233.540,229.457 232.875 C 229.489 232.210,229.489 231.123,229.457 230.458 C 229.425 229.794,229.400 230.338,229.400 231.667 M234.529 230.458 C 234.513 231.123,234.567 231.667,234.649 231.667 C 234.827 231.667,235.045 231.156,234.921 231.032 C 234.873 230.984,234.820 231.051,234.805 231.181 C 234.789 231.310,234.727 230.929,234.667 230.333 L 234.558 229.250 234.529 230.458 M170.714 230.417 C 170.716 230.875,170.748 231.043,170.786 230.789 C 170.825 230.536,170.824 230.161,170.784 229.956 C 170.744 229.751,170.713 229.958,170.714 230.417 M175.709 230.250 C 175.711 230.617,175.745 230.747,175.785 230.540 C 175.824 230.332,175.823 230.032,175.781 229.873 C 175.739 229.714,175.707 229.883,175.709 230.250 M248.389 230.833 C 248.389 231.521,248.419 231.802,248.455 231.458 C 248.491 231.115,248.491 230.552,248.455 230.208 C 248.419 229.865,248.389 230.146,248.389 230.833 M189.458 230.789 C 189.848 230.824,190.485 230.824,190.875 230.789 C 191.265 230.754,190.946 230.725,190.167 230.725 C 189.387 230.725,189.069 230.754,189.458 230.789 M206.792 230.789 C 207.181 230.824,207.819 230.824,208.208 230.789 C 208.598 230.754,208.279 230.725,207.500 230.725 C 206.721 230.725,206.402 230.754,206.792 230.789 M266.083 230.826 C 267.747 230.943,268.699 231.288,269.758 232.160 C 270.370 232.663,270.365 232.653,269.695 232.024 C 268.687 231.079,267.482 230.660,265.869 230.694 L 264.583 230.721 266.083 230.826 M187.244 231.067 C 186.873 231.182,186.423 231.371,186.244 231.485 C 185.922 231.689,185.922 231.690,186.250 231.570 C 186.433 231.502,187.071 231.313,187.667 231.150 C 188.262 230.986,188.563 230.853,188.333 230.854 C 188.104 230.855,187.614 230.951,187.244 231.067 M192.250 231.118 C 192.617 231.265,193.292 231.639,193.750 231.949 C 194.550 232.492,194.561 232.494,194.011 232.011 C 193.418 231.490,192.161 230.827,191.793 230.842 C 191.678 230.847,191.883 230.971,192.250 231.118 M204.441 231.105 C 203.240 231.474,203.572 231.511,204.917 231.159 C 205.558 230.990,205.896 230.853,205.667 230.855 C 205.438 230.856,204.886 230.968,204.441 231.105 M263.250 231.004 C 263.027 231.103,263.166 231.119,263.667 231.053 C 264.079 230.998,264.448 230.927,264.486 230.893 C 264.631 230.768,263.568 230.863,263.250 231.004 M243.214 232.083 C 243.216 232.542,243.248 232.709,243.286 232.456 C 243.325 232.203,243.324 231.828,243.284 231.623 C 243.244 231.418,243.213 231.625,243.214 232.083 M261.469 231.672 C 261.131 231.851,260.811 232.068,260.757 232.156 C 260.679 232.281,262.032 231.617,262.319 231.388 C 262.540 231.213,261.992 231.396,261.469 231.672 M175.545 232.167 C 175.545 232.579,175.578 232.748,175.618 232.542 C 175.657 232.335,175.657 231.998,175.618 231.792 C 175.578 231.585,175.545 231.754,175.545 232.167 M210.667 231.561 C 210.667 231.606,210.892 231.804,211.167 232.000 C 211.442 232.196,211.667 232.319,211.667 232.273 C 211.667 232.227,211.442 232.029,211.167 231.833 C 210.892 231.638,210.667 231.515,210.667 231.561 M168.429 232.000 C 168.490 232.229,168.610 232.529,168.695 232.667 C 168.802 232.840,168.815 232.790,168.738 232.500 C 168.676 232.271,168.557 231.971,168.472 231.833 C 168.365 231.660,168.351 231.710,168.429 232.000 M185.250 231.981 C 184.975 232.153,184.412 232.657,184.000 233.101 L 183.250 233.907 184.256 232.995 C 184.809 232.494,185.409 231.994,185.589 231.885 C 185.769 231.776,185.879 231.682,185.833 231.677 C 185.787 231.672,185.525 231.809,185.250 231.981 M252.594 232.627 C 252.430 233.153,252.003 234.364,251.646 235.318 C 251.289 236.272,251.026 237.082,251.062 237.118 C 251.098 237.154,251.464 236.260,251.876 235.133 C 252.821 232.546,253.051 231.829,252.963 231.741 C 252.924 231.702,252.758 232.101,252.594 232.627 M148.969 232.536 C 148.723 232.791,148.578 233.000,148.648 233.000 C 148.806 233.000,149.583 232.186,149.487 232.120 C 149.448 232.094,149.215 232.282,148.969 232.536 M237.022 233.022 C 236.825 233.497,236.691 233.913,236.725 233.947 C 236.758 233.980,236.947 233.619,237.144 233.144 C 237.342 232.670,237.476 232.254,237.442 232.220 C 237.409 232.186,237.220 232.547,237.022 233.022 M259.824 232.958 L 259.250 233.583 259.875 233.009 C 260.219 232.693,260.500 232.412,260.500 232.384 C 260.500 232.257,260.359 232.377,259.824 232.958 M170.560 234.000 C 170.560 234.871,170.588 235.227,170.623 234.792 C 170.657 234.356,170.657 233.644,170.623 233.208 C 170.588 232.773,170.560 233.129,170.560 234.000 M223.042 232.619 C 223.294 232.658,223.706 232.658,223.958 232.619 C 224.210 232.581,224.004 232.550,223.500 232.550 C 222.996 232.550,222.790 232.581,223.042 232.619 M190.794 232.951 C 191.001 232.991,191.301 232.990,191.460 232.948 C 191.620 232.906,191.450 232.874,191.083 232.875 C 190.717 232.877,190.586 232.911,190.794 232.951 M208.127 232.951 C 208.334 232.991,208.634 232.990,208.794 232.948 C 208.953 232.906,208.783 232.874,208.417 232.875 C 208.050 232.877,207.920 232.911,208.127 232.951 M266.460 232.951 C 266.668 232.991,266.968 232.990,267.127 232.948 C 267.286 232.906,267.117 232.874,266.750 232.875 C 266.383 232.877,266.253 232.911,266.460 232.951 M147.460 233.118 C 147.668 233.158,147.968 233.156,148.127 233.115 C 148.286 233.073,148.117 233.040,147.750 233.042 C 147.383 233.044,147.253 233.078,147.460 233.118 M168.898 233.261 C 168.953 233.405,169.160 234.081,169.359 234.763 C 169.557 235.445,169.751 235.971,169.790 235.932 C 169.885 235.837,169.017 233.000,168.893 233.000 C 168.841 233.000,168.843 233.118,168.898 233.261 M209.435 233.325 C 209.537 233.467,209.703 233.733,209.805 233.917 C 209.907 234.100,209.992 234.160,209.995 234.051 C 209.998 233.941,209.831 233.675,209.625 233.459 C 209.419 233.244,209.333 233.183,209.435 233.325 M267.901 233.447 C 268.075 233.655,268.273 234.109,268.340 234.455 L 268.462 235.083 268.481 234.544 C 268.494 234.164,268.365 233.867,268.042 233.536 C 267.790 233.278,267.726 233.238,267.901 233.447 M195.088 233.848 C 195.223 234.229,195.339 234.701,195.346 234.896 C 195.354 235.098,195.398 235.155,195.448 235.029 C 195.551 234.771,195.185 233.365,194.982 233.239 C 194.906 233.192,194.954 233.466,195.088 233.848 M175.381 234.083 C 175.382 234.542,175.415 234.709,175.453 234.456 C 175.491 234.203,175.490 233.828,175.451 233.623 C 175.411 233.418,175.380 233.625,175.381 234.083 M205.162 234.114 C 204.599 234.755,204.004 235.904,204.012 236.333 C 204.015 236.471,204.164 236.203,204.343 235.737 C 204.522 235.272,204.936 234.578,205.264 234.196 C 205.591 233.813,205.824 233.500,205.780 233.500 C 205.737 233.500,205.459 233.776,205.162 234.114 M218.658 234.458 L 218.083 235.083 218.708 234.509 C 219.052 234.193,219.333 233.912,219.333 233.884 C 219.333 233.757,219.192 233.877,218.658 234.458 M283.070 234.329 C 283.453 234.927,283.394 235.564,282.898 236.196 L 282.462 236.750 282.981 236.206 C 283.597 235.560,283.658 234.883,283.153 234.310 L 282.807 233.917 283.070 234.329 M236.280 234.758 C 235.888 235.579,235.943 235.719,236.353 234.943 C 236.539 234.590,236.661 234.272,236.625 234.236 C 236.589 234.200,236.434 234.435,236.280 234.758 M192.721 235.417 C 192.722 236.058,192.752 236.300,192.788 235.955 C 192.824 235.609,192.824 235.084,192.787 234.788 C 192.750 234.492,192.721 234.775,192.721 235.417 M210.056 235.500 C 210.056 236.188,210.085 236.469,210.121 236.125 C 210.157 235.781,210.157 235.219,210.121 234.875 C 210.085 234.531,210.056 234.813,210.056 235.500 M262.998 234.875 C 262.817 235.173,262.668 235.485,262.667 235.569 C 262.667 235.759,262.690 235.728,263.131 234.958 C 263.569 234.193,263.457 234.122,262.998 234.875 M278.792 234.595 C 278.169 234.933,278.207 235.074,278.833 234.750 C 279.108 234.608,279.333 234.456,279.333 234.412 C 279.333 234.305,279.315 234.311,278.792 234.595 M199.583 235.708 C 199.271 236.373,198.974 237.142,198.923 237.417 C 198.871 237.692,198.969 237.542,199.141 237.083 C 199.312 236.625,199.651 235.856,199.895 235.375 C 200.139 234.894,200.296 234.500,200.245 234.500 C 200.193 234.500,199.895 235.044,199.583 235.708 M175.221 236.417 C 175.222 237.058,175.252 237.300,175.288 236.955 C 175.324 236.609,175.324 236.084,175.287 235.788 C 175.250 235.492,175.221 235.775,175.221 236.417 M195.548 236.083 C 195.549 236.542,195.581 236.709,195.620 236.456 C 195.658 236.203,195.657 235.828,195.617 235.623 C 195.578 235.418,195.546 235.625,195.548 236.083 M226.594 235.648 C 226.967 235.818,227.567 236.208,227.928 236.516 C 228.319 236.850,228.449 236.916,228.250 236.679 C 227.831 236.181,226.519 235.332,226.176 235.337 C 226.033 235.339,226.222 235.479,226.594 235.648 M276.618 236.208 L 275.720 237.083 276.568 236.347 C 277.035 235.943,277.488 235.549,277.575 235.472 C 277.662 235.396,277.684 235.333,277.624 235.333 C 277.565 235.333,277.112 235.727,276.618 236.208 M257.860 235.924 C 257.581 236.537,257.634 236.667,257.936 236.110 C 258.077 235.850,258.162 235.606,258.123 235.568 C 258.085 235.530,257.967 235.690,257.860 235.924 M235.449 236.592 C 234.837 237.839,234.894 237.987,235.519 236.775 C 235.796 236.239,235.994 235.772,235.960 235.738 C 235.926 235.704,235.696 236.088,235.449 236.592 M262.332 236.505 C 261.982 237.806,261.835 239.073,261.860 240.583 C 261.884 242.061,261.886 242.053,262.006 240.000 C 262.072 238.854,262.245 237.470,262.390 236.924 C 262.535 236.378,262.624 235.901,262.587 235.865 C 262.551 235.829,262.436 236.117,262.332 236.505 M221.512 237.585 C 221.322 238.199,221.173 238.788,221.180 238.893 C 221.188 238.997,221.371 238.523,221.589 237.839 C 221.806 237.154,221.955 236.566,221.920 236.531 C 221.885 236.496,221.701 236.970,221.512 237.585 M257.344 237.276 C 257.245 237.628,257.126 238.217,257.080 238.583 C 257.034 238.950,257.141 238.688,257.317 238.000 C 257.646 236.718,257.668 236.124,257.344 237.276 M153.370 238.765 C 153.350 239.874,153.300 241.712,153.260 242.849 L 153.186 244.917 153.346 242.917 C 153.433 241.817,153.482 239.979,153.455 238.833 L 153.406 236.750 153.370 238.765 M209.700 237.450 C 209.596 237.789,209.538 238.094,209.572 238.128 C 209.606 238.161,209.723 237.916,209.833 237.583 C 209.943 237.250,210.001 236.945,209.961 236.906 C 209.922 236.866,209.804 237.111,209.700 237.450 M281.742 237.542 L 281.083 238.250 281.792 237.591 C 282.450 236.978,282.577 236.833,282.450 236.833 C 282.423 236.833,282.105 237.152,281.742 237.542 M158.059 238.417 C 158.059 239.242,158.087 239.600,158.122 239.213 C 158.157 238.827,158.157 238.152,158.123 237.713 C 158.088 237.275,158.060 237.592,158.059 238.417 M195.276 237.658 C 195.113 238.630,194.327 240.259,193.487 241.364 C 192.838 242.218,192.835 242.226,193.418 241.585 C 194.504 240.389,195.628 237.993,195.465 237.222 C 195.430 237.054,195.345 237.250,195.276 237.658 M228.667 237.219 C 228.667 237.248,228.910 237.491,229.208 237.760 L 229.750 238.250 229.260 237.708 C 228.804 237.203,228.667 237.090,228.667 237.219 M268.025 237.745 C 267.905 238.076,267.476 238.850,267.071 239.465 C 266.595 240.189,266.507 240.385,266.823 240.021 C 267.406 239.347,268.381 237.561,268.300 237.317 C 268.268 237.221,268.144 237.414,268.025 237.745 M170.272 237.917 C 170.303 238.100,170.330 238.311,170.331 238.385 C 170.332 238.459,170.408 238.473,170.500 238.417 C 170.592 238.360,170.661 238.112,170.655 237.865 C 170.645 237.471,170.627 237.457,170.511 237.750 C 170.407 238.012,170.361 238.030,170.296 237.833 C 170.251 237.696,170.240 237.733,170.272 237.917 M175.057 239.250 C 175.058 239.983,175.087 240.263,175.122 239.871 C 175.157 239.479,175.157 238.879,175.121 238.537 C 175.085 238.196,175.057 238.517,175.057 239.250 M203.539 238.833 C 203.539 239.154,203.573 239.285,203.615 239.125 C 203.657 238.965,203.657 238.702,203.615 238.542 C 203.573 238.381,203.539 238.512,203.539 238.833 M216.250 239.000 C 216.187 239.288,216.170 239.559,216.212 239.601 C 216.255 239.643,216.337 239.439,216.396 239.146 C 216.454 238.853,216.471 238.583,216.434 238.545 C 216.396 238.507,216.313 238.712,216.250 239.000 M229.714 239.250 C 229.716 239.708,229.748 239.876,229.786 239.623 C 229.825 239.369,229.824 238.994,229.784 238.789 C 229.744 238.584,229.713 238.792,229.714 239.250 M220.940 239.535 C 220.884 239.745,220.845 240.104,220.854 240.333 C 220.863 240.579,220.929 240.446,221.015 240.011 C 221.168 239.230,221.114 238.886,220.940 239.535 M243.217 240.167 C 243.217 240.671,243.248 240.877,243.286 240.625 C 243.324 240.373,243.324 239.960,243.286 239.708 C 243.248 239.456,243.217 239.662,243.217 240.167 M256.898 241.417 C 256.898 242.608,256.925 243.074,256.957 242.451 C 256.989 241.829,256.989 240.854,256.957 240.285 C 256.924 239.716,256.898 240.225,256.898 241.417 M190.821 240.100 C 190.342 240.612,189.430 241.105,188.167 241.534 C 187.573 241.735,187.448 241.814,187.812 241.756 C 188.950 241.575,192.148 239.667,191.312 239.667 C 191.264 239.667,191.043 239.861,190.821 240.100 M208.073 240.208 L 207.583 240.750 208.125 240.260 C 208.630 239.804,208.743 239.667,208.615 239.667 C 208.586 239.667,208.342 239.910,208.073 240.208 M216.042 240.417 C 216.044 240.783,216.078 240.914,216.118 240.706 C 216.158 240.499,216.156 240.199,216.115 240.040 C 216.073 239.880,216.040 240.050,216.042 240.417 M234.875 240.583 C 234.877 240.950,234.911 241.080,234.951 240.873 C 234.991 240.666,234.990 240.366,234.948 240.206 C 234.906 240.047,234.874 240.217,234.875 240.583 M157.889 241.333 C 157.889 242.021,157.919 242.302,157.955 241.958 C 157.991 241.615,157.991 241.052,157.955 240.708 C 157.919 240.365,157.889 240.646,157.889 241.333 M186.031 241.042 L 186.000 242.000 186.625 241.973 C 187.228 241.948,187.232 241.944,186.717 241.880 C 186.203 241.816,186.181 241.781,186.123 240.948 L 186.062 240.083 186.031 241.042 M206.917 240.953 C 206.642 241.102,206.004 241.358,205.500 241.520 C 204.996 241.683,204.712 241.819,204.869 241.824 C 205.247 241.836,206.852 241.231,207.260 240.922 C 207.685 240.600,207.539 240.613,206.917 240.953 M229.875 241.250 C 229.877 241.617,229.911 241.747,229.951 241.540 C 229.991 241.332,229.990 241.032,229.948 240.873 C 229.906 240.714,229.874 240.883,229.875 241.250 M210.573 241.625 C 210.201 242.060,209.834 242.529,209.757 242.667 C 209.607 242.937,210.777 241.638,211.134 241.138 C 211.527 240.589,211.263 240.818,210.573 241.625 M220.725 242.167 C 220.725 242.946,220.754 243.265,220.789 242.875 C 220.824 242.485,220.824 241.848,220.789 241.458 C 220.754 241.069,220.725 241.387,220.725 242.167 M264.917 241.167 C 264.550 241.336,264.309 241.481,264.380 241.488 C 264.578 241.506,265.667 241.030,265.667 240.925 C 265.667 240.812,265.718 240.796,264.917 241.167 M174.889 242.167 C 174.889 242.854,174.919 243.135,174.955 242.792 C 174.991 242.448,174.991 241.885,174.955 241.542 C 174.919 241.198,174.889 241.479,174.889 242.167 M215.887 242.167 C 215.887 242.762,215.917 243.006,215.954 242.708 C 215.991 242.410,215.991 241.923,215.954 241.625 C 215.917 241.327,215.887 241.571,215.887 242.167 M268.428 242.292 C 267.884 242.910,267.684 243.192,267.985 242.917 C 268.508 242.438,269.588 241.167,269.472 241.167 C 269.442 241.167,268.972 241.673,268.428 242.292 M262.917 241.754 C 262.444 241.875,262.264 241.969,262.500 241.971 C 262.729 241.973,263.217 241.876,263.583 241.755 C 264.434 241.474,264.006 241.474,262.917 241.754 M203.602 241.970 C 203.556 242.045,203.739 242.074,204.009 242.034 C 204.279 241.995,204.500 241.933,204.500 241.898 C 204.500 241.771,203.685 241.836,203.602 241.970 M279.881 242.583 C 279.882 243.042,279.915 243.209,279.953 242.956 C 279.991 242.703,279.990 242.328,279.951 242.123 C 279.911 241.918,279.880 242.125,279.881 242.583 M198.539 242.667 C 198.539 242.987,198.573 243.119,198.615 242.958 C 198.657 242.798,198.657 242.535,198.615 242.375 C 198.573 242.215,198.539 242.346,198.539 242.667 M230.027 242.656 C 230.012 242.976,229.837 243.417,229.630 243.656 L 229.259 244.083 229.725 243.650 C 230.101 243.302,230.178 243.107,230.122 242.650 L 230.053 242.083 230.027 242.656 M235.048 242.917 C 235.049 243.375,235.081 243.543,235.120 243.289 C 235.158 243.036,235.157 242.661,235.117 242.456 C 235.078 242.251,235.046 242.458,235.048 242.917 M243.372 243.000 C 243.372 243.321,243.406 243.452,243.448 243.292 C 243.490 243.131,243.490 242.869,243.448 242.708 C 243.406 242.548,243.372 242.679,243.372 243.000 M157.712 243.833 C 157.712 244.246,157.745 244.415,157.784 244.208 C 157.824 244.002,157.824 243.665,157.784 243.458 C 157.745 243.252,157.712 243.421,157.712 243.833 M215.452 244.202 C 215.301 244.677,215.204 245.093,215.238 245.127 C 215.272 245.161,215.427 244.804,215.583 244.333 C 215.740 243.863,215.836 243.447,215.798 243.409 C 215.760 243.371,215.604 243.728,215.452 244.202 M174.723 244.667 C 174.723 245.354,174.752 245.635,174.788 245.292 C 174.824 244.948,174.824 244.385,174.788 244.042 C 174.752 243.698,174.723 243.979,174.723 244.667 M168.196 243.917 C 168.190 244.100,168.248 244.550,168.324 244.917 C 168.440 245.477,168.462 245.504,168.461 245.083 C 168.460 244.500,168.212 243.404,168.196 243.917 M220.845 243.845 C 220.831 244.164,221.332 245.890,221.415 245.807 C 221.448 245.774,221.336 245.260,221.166 244.665 C 220.996 244.070,220.852 243.701,220.845 243.845 M256.595 244.095 C 256.534 244.339,256.516 244.571,256.555 244.611 C 256.594 244.650,256.677 244.482,256.738 244.238 C 256.799 243.994,256.817 243.762,256.778 243.723 C 256.739 243.683,256.657 243.851,256.595 244.095 M235.205 244.667 C 235.205 244.987,235.240 245.119,235.282 244.958 C 235.323 244.798,235.323 244.535,235.282 244.375 C 235.240 244.215,235.205 244.346,235.205 244.667 M287.923 245.884 C 287.009 246.727,285.663 247.991,284.931 248.693 L 283.600 249.969 284.078 250.658 C 284.340 251.038,284.632 251.395,284.726 251.453 C 284.819 251.511,284.640 251.202,284.328 250.767 L 283.759 249.975 285.013 248.779 C 285.702 248.122,287.050 246.856,288.008 245.967 C 288.966 245.079,289.712 244.351,289.667 244.351 C 289.621 244.351,288.836 245.041,287.923 245.884 M284.167 246.169 C 282.133 248.093,282.309 248.033,281.340 247.125 L 280.583 246.417 281.326 247.208 C 281.735 247.644,282.148 247.998,282.243 247.996 C 282.413 247.993,286.165 244.516,286.000 244.515 C 285.954 244.515,285.129 245.259,284.167 246.169 M256.182 245.515 C 256.069 245.891,256.008 246.230,256.045 246.267 C 256.083 246.305,256.205 246.028,256.318 245.652 C 256.431 245.275,256.492 244.937,256.455 244.899 C 256.417 244.862,256.295 245.139,256.182 245.515 M153.045 245.667 C 153.045 246.079,153.078 246.248,153.118 246.042 C 153.157 245.835,153.157 245.498,153.118 245.292 C 153.078 245.085,153.045 245.254,153.045 245.667 M157.539 245.667 C 157.539 245.987,157.573 246.119,157.615 245.958 C 157.657 245.798,157.657 245.535,157.615 245.375 C 157.573 245.215,157.539 245.346,157.539 245.667 M227.500 245.862 C 227.063 246.258,226.959 246.402,227.250 246.206 C 227.710 245.896,228.474 245.157,228.317 245.174 C 228.280 245.178,227.912 245.487,227.500 245.862 M262.178 245.250 C 262.178 245.342,262.286 245.604,262.417 245.833 C 262.548 246.063,262.655 246.175,262.655 246.083 C 262.655 245.992,262.548 245.729,262.417 245.500 C 262.286 245.271,262.178 245.158,262.178 245.250 M214.700 246.087 C 214.501 246.497,214.373 246.833,214.415 246.833 C 214.528 246.833,215.202 245.480,215.126 245.404 C 215.091 245.369,214.900 245.677,214.700 246.087 M272.803 246.604 C 272.465 247.192,272.255 247.632,272.334 247.583 C 272.522 247.467,273.555 245.665,273.476 245.591 C 273.443 245.560,273.140 246.016,272.803 246.604 M168.535 246.083 C 168.532 246.358,168.588 246.958,168.659 247.417 C 168.765 248.098,168.791 248.144,168.799 247.667 C 168.804 247.346,168.749 246.746,168.675 246.333 C 168.578 245.788,168.540 245.720,168.535 246.083 M174.561 247.583 C 174.561 248.500,174.589 248.854,174.623 248.369 C 174.657 247.885,174.656 247.135,174.622 246.703 C 174.588 246.270,174.560 246.667,174.561 247.583 M221.501 246.097 C 221.501 246.181,221.695 246.475,221.931 246.750 L 222.361 247.250 221.984 246.667 C 221.502 245.918,221.500 245.916,221.501 246.097 M152.764 247.347 C 152.701 247.819,152.684 248.239,152.725 248.280 C 152.766 248.321,152.852 247.970,152.917 247.500 C 152.981 247.030,152.999 246.610,152.956 246.567 C 152.913 246.524,152.827 246.875,152.764 247.347 M229.810 247.015 C 229.494 247.328,229.444 247.401,229.699 247.179 C 230.288 246.666,230.235 246.585,230.841 248.921 C 231.125 250.012,231.430 251.019,231.519 251.160 C 231.638 251.346,231.649 251.302,231.562 251.000 C 231.496 250.771,231.204 249.653,230.914 248.515 L 230.386 246.448 229.810 247.015 M242.093 246.804 C 242.035 246.985,241.617 247.759,241.163 248.525 C 240.709 249.290,240.509 249.710,240.718 249.457 C 241.211 248.861,242.394 246.671,242.283 246.560 C 242.236 246.513,242.150 246.623,242.093 246.804 M199.364 247.250 C 199.259 247.479,199.201 247.667,199.234 247.667 C 199.268 247.667,199.418 247.479,199.568 247.250 C 199.718 247.021,199.776 246.833,199.697 246.833 C 199.618 246.833,199.468 247.021,199.364 247.250 M204.908 247.651 C 205.046 247.917,205.544 248.536,206.014 249.026 L 206.869 249.917 206.089 249.010 C 205.660 248.512,205.201 247.893,205.067 247.635 C 204.934 247.378,204.787 247.167,204.741 247.167 C 204.696 247.167,204.771 247.384,204.908 247.651 M224.500 247.500 C 224.157 247.610,224.142 247.636,224.417 247.648 C 224.600 247.655,224.862 247.589,225.000 247.500 C 225.292 247.311,225.089 247.311,224.500 247.500 M235.689 247.583 C 235.687 247.932,236.291 249.874,236.310 249.583 C 236.317 249.492,236.180 248.929,236.006 248.333 C 235.832 247.737,235.690 247.400,235.689 247.583 M200.340 248.129 C 200.556 248.521,200.942 249.084,201.198 249.379 C 201.454 249.675,201.319 249.392,200.898 248.750 C 199.985 247.359,199.806 247.159,200.340 248.129 M257.756 248.545 C 257.587 249.025,257.272 249.773,257.055 250.208 C 256.838 250.644,256.698 251.000,256.744 251.000 C 256.956 251.000,258.280 247.891,258.131 247.742 C 258.094 247.705,257.925 248.066,257.756 248.545 M145.292 247.951 C 145.498 247.991,145.835 247.991,146.042 247.951 C 146.248 247.911,146.079 247.879,145.667 247.879 C 145.254 247.879,145.085 247.911,145.292 247.951 M216.083 248.333 C 215.941 248.608,215.862 248.833,215.908 248.833 C 215.954 248.833,216.108 248.608,216.250 248.333 C 216.392 248.058,216.471 247.833,216.425 247.833 C 216.379 247.833,216.226 248.058,216.083 248.333 M144.202 248.569 C 143.485 249.385,143.252 250.207,143.252 251.917 C 143.252 253.303,143.692 254.833,144.090 254.833 C 144.136 254.833,144.004 254.515,143.796 254.125 C 143.029 252.684,143.331 249.750,144.368 248.569 C 144.643 248.256,144.830 248.000,144.785 248.000 C 144.739 248.000,144.476 248.256,144.202 248.569 M195.491 248.792 L 194.917 249.417 195.542 248.842 C 196.123 248.308,196.243 248.167,196.116 248.167 C 196.088 248.167,195.807 248.448,195.491 248.792 M212.906 248.708 L 212.417 249.250 212.958 248.760 C 213.463 248.304,213.577 248.167,213.448 248.167 C 213.419 248.167,213.175 248.410,212.906 248.708 M168.854 248.750 C 168.802 250.113,169.684 254.084,170.140 254.540 C 170.212 254.612,170.066 254.052,169.815 253.294 C 169.563 252.537,169.249 251.092,169.116 250.083 C 168.983 249.075,168.865 248.475,168.854 248.750 M183.451 248.804 C 184.216 250.222,186.793 252.095,188.417 252.413 C 188.692 252.467,188.458 252.335,187.898 252.118 C 186.018 251.393,184.623 250.311,183.450 248.667 C 183.167 248.271,183.167 248.278,183.451 248.804 M152.438 249.021 C 152.299 249.716,152.433 249.850,152.583 249.167 C 152.647 248.879,152.664 248.608,152.621 248.566 C 152.579 248.523,152.496 248.728,152.438 249.021 M188.333 248.719 C 188.333 248.748,188.577 248.991,188.875 249.260 L 189.417 249.750 188.927 249.208 C 188.471 248.703,188.333 248.590,188.333 248.719 M273.986 249.208 C 273.881 249.415,273.484 249.921,273.106 250.333 L 272.417 251.083 273.139 250.417 C 273.778 249.827,274.481 248.833,274.260 248.833 C 274.215 248.833,274.092 249.002,273.986 249.208 M174.387 250.333 C 174.387 250.929,174.417 251.173,174.454 250.875 C 174.491 250.577,174.491 250.090,174.454 249.792 C 174.417 249.494,174.387 249.737,174.387 250.333 M236.429 250.167 C 236.490 250.396,236.610 250.696,236.695 250.833 C 236.802 251.007,236.815 250.956,236.738 250.667 C 236.676 250.438,236.557 250.137,236.472 250.000 C 236.365 249.826,236.351 249.877,236.429 250.167 M260.000 249.885 C 260.000 249.914,260.244 250.158,260.542 250.427 L 261.083 250.917 260.594 250.375 C 260.138 249.870,260.000 249.757,260.000 249.885 M277.458 250.341 C 278.141 251.087,278.169 250.970,277.042 252.096 L 276.083 253.054 277.083 252.152 C 278.318 251.039,278.318 251.038,277.547 250.329 L 276.917 249.750 277.458 250.341 M202.473 250.701 C 202.880 251.155,204.449 252.050,205.167 252.238 C 205.396 252.297,205.058 252.093,204.417 251.784 C 203.775 251.475,202.987 251.007,202.667 250.744 C 202.116 250.293,202.105 250.290,202.473 250.701 M213.644 251.136 C 213.310 251.382,212.897 251.680,212.727 251.798 C 212.556 251.916,212.737 251.845,213.129 251.640 C 213.521 251.435,213.964 251.132,214.113 250.967 C 214.479 250.563,214.366 250.604,213.644 251.136 M151.616 251.419 C 151.463 251.738,151.373 252.000,151.415 252.000 C 151.529 252.000,152.035 250.980,151.959 250.903 C 151.923 250.867,151.768 251.099,151.616 251.419 M239.410 251.011 C 239.267 251.242,237.991 252.167,237.815 252.167 C 237.740 252.167,237.522 251.998,237.330 251.792 C 237.063 251.506,237.006 251.487,237.093 251.713 C 237.305 252.269,237.794 252.385,238.385 252.020 C 238.925 251.686,239.814 250.833,239.622 250.833 C 239.566 250.833,239.470 250.913,239.410 251.011 M271.667 251.428 C 270.589 252.189,269.370 252.544,267.417 252.665 L 265.583 252.779 267.107 252.806 C 269.076 252.841,272.333 251.769,272.333 251.087 C 272.333 250.962,272.310 250.974,271.667 251.428 M252.959 251.875 C 252.732 252.173,252.292 252.672,251.981 252.984 C 251.671 253.297,251.573 253.447,251.764 253.318 C 252.210 253.016,253.646 251.333,253.457 251.333 C 253.411 251.333,253.187 251.577,252.959 251.875 M261.833 251.415 C 261.833 251.529,262.854 252.035,262.930 251.959 C 262.966 251.923,262.734 251.768,262.415 251.616 C 262.095 251.463,261.833 251.373,261.833 251.415 M231.669 251.592 C 231.666 251.843,232.591 253.268,232.859 253.425 C 232.986 253.500,232.963 253.419,232.805 253.237 C 232.652 253.061,232.334 252.579,232.098 252.167 C 231.863 251.754,231.670 251.496,231.669 251.592 M241.420 252.292 C 241.062 252.727,240.942 252.933,241.153 252.750 C 241.525 252.426,242.249 251.500,242.130 251.500 C 242.097 251.500,241.778 251.856,241.420 252.292 M193.917 252.348 C 193.458 252.515,193.233 252.653,193.417 252.655 C 193.600 252.657,194.050 252.516,194.417 252.342 C 195.253 251.947,195.010 251.950,193.917 252.348 M211.250 252.348 C 210.792 252.515,210.567 252.653,210.750 252.655 C 210.933 252.657,211.383 252.516,211.750 252.342 C 212.586 251.947,212.344 251.950,211.250 252.348 M263.615 252.248 C 263.908 252.383,264.470 252.532,264.865 252.580 L 265.583 252.666 264.750 252.445 C 264.292 252.324,263.729 252.175,263.500 252.114 C 263.212 252.038,263.247 252.079,263.615 252.248 M206.000 252.514 C 206.229 252.618,207.317 252.726,208.417 252.755 L 210.417 252.806 208.500 252.674 C 207.446 252.602,206.358 252.494,206.083 252.434 C 205.602 252.330,205.599 252.333,206.000 252.514 M189.417 252.676 C 189.906 252.791,193.246 252.862,192.917 252.750 C 192.825 252.719,191.887 252.663,190.833 252.626 C 189.779 252.588,189.142 252.611,189.417 252.676 M173.616 253.752 C 173.463 254.072,173.373 254.333,173.415 254.333 C 173.529 254.333,174.035 253.313,173.959 253.237 C 173.923 253.200,173.768 253.432,173.616 253.752 M279.240 253.875 L 278.750 254.417 279.292 253.927 C 279.797 253.471,279.910 253.333,279.781 253.333 C 279.752 253.333,279.509 253.577,279.240 253.875 M154.333 254.417 C 153.928 254.829,153.635 255.167,153.681 255.167 C 153.726 255.167,154.095 254.829,154.500 254.417 C 154.905 254.004,155.199 253.667,155.153 253.667 C 155.107 253.667,154.738 254.004,154.333 254.417 M253.742 254.875 L 253.083 255.583 253.792 254.925 C 254.450 254.312,254.577 254.167,254.450 254.167 C 254.423 254.167,254.105 254.485,253.742 254.875 M246.417 254.977 C 246.783 255.371,247.233 255.772,247.417 255.869 C 247.600 255.966,247.713 256.011,247.667 255.970 C 246.043 254.496,245.758 254.270,246.417 254.977 M278.408 255.078 C 277.961 256.147,278.216 259.000,278.759 259.000 C 278.804 259.000,278.727 258.779,278.588 258.508 C 278.260 257.874,278.252 255.850,278.575 255.078 C 278.708 254.760,278.779 254.500,278.733 254.500 C 278.687 254.500,278.541 254.760,278.408 255.078 M144.167 255.052 C 144.167 255.081,144.410 255.325,144.708 255.594 L 145.250 256.083 144.760 255.542 C 144.304 255.037,144.167 254.923,144.167 255.052 M282.042 256.750 C 282.044 257.117,282.078 257.247,282.118 257.040 C 282.158 256.832,282.156 256.532,282.115 256.373 C 282.073 256.214,282.040 256.383,282.042 256.750 M146.607 256.688 C 146.777 256.755,147.629 256.806,148.500 256.802 C 150.437 256.793,150.159 256.705,147.940 256.625 C 147.037 256.593,146.437 256.621,146.607 256.688 M278.960 261.285 C 279.168 261.324,279.468 261.323,279.627 261.281 C 279.786 261.239,279.617 261.207,279.250 261.209 C 278.883 261.211,278.753 261.245,278.960 261.285 " stroke="none" fill="#d8cb9c" fill-rule="evenodd"></path><path id="path4" d="M130.544 118.453 C 130.797 118.491,131.172 118.490,131.377 118.451 C 131.582 118.411,131.375 118.380,130.917 118.381 C 130.458 118.382,130.291 118.415,130.544 118.453 M153.917 121.327 C 154.100 121.416,155.262 121.857,156.500 122.307 C 159.524 123.407,159.484 123.394,159.000 123.112 C 158.575 122.864,154.756 121.456,154.000 121.268 C 153.644 121.180,153.632 121.188,153.917 121.327 M126.792 121.625 C 128.098 121.653,130.235 121.653,131.542 121.625 C 132.848 121.596,131.779 121.573,129.167 121.573 C 126.554 121.573,125.485 121.596,126.792 121.625 M135.288 121.787 C 135.584 121.824,136.109 121.824,136.455 121.788 C 136.800 121.752,136.558 121.722,135.917 121.721 C 135.275 121.721,134.992 121.750,135.288 121.787 M146.686 122.369 C 146.662 122.731,147.049 122.935,148.000 123.060 C 148.758 123.159,148.430 123.022,147.304 122.767 C 147.058 122.712,146.823 122.535,146.782 122.375 C 146.711 122.106,146.704 122.105,146.686 122.369 M150.000 123.500 C 150.229 123.573,150.604 123.632,150.833 123.630 C 151.208 123.628,151.199 123.614,150.750 123.500 C 150.045 123.321,149.440 123.321,150.000 123.500 M158.833 126.250 C 159.063 126.381,159.325 126.488,159.417 126.488 C 159.508 126.488,159.396 126.381,159.167 126.250 C 158.938 126.119,158.675 126.012,158.583 126.012 C 158.492 126.012,158.604 126.119,158.833 126.250 M164.917 126.274 C 165.194 126.555,167.500 128.176,167.500 128.090 C 167.500 127.998,165.982 126.867,165.250 126.415 C 164.975 126.245,164.825 126.182,164.917 126.274 M160.667 127.077 C 160.667 127.122,160.985 127.321,161.375 127.519 C 161.765 127.716,162.590 128.203,163.208 128.602 C 163.827 129.000,164.333 129.289,164.333 129.243 C 164.333 129.128,162.240 127.790,161.375 127.352 C 160.985 127.155,160.667 127.031,160.667 127.077 M167.917 128.438 C 169.384 129.890,171.137 131.458,170.250 130.525 C 169.700 129.947,168.875 129.167,168.417 128.791 C 167.958 128.415,167.733 128.256,167.917 128.438 M167.425 131.985 C 167.889 132.497,168.591 133.348,168.987 133.875 C 169.383 134.402,169.740 134.833,169.780 134.833 C 169.961 134.833,168.652 133.183,167.667 132.168 C 166.953 131.433,166.870 131.370,167.425 131.985 M172.744 133.792 C 173.001 134.181,173.243 134.500,173.282 134.500 C 173.402 134.500,172.764 133.486,172.513 133.279 C 172.383 133.171,172.487 133.402,172.744 133.792 M174.010 136.065 C 174.370 136.834,174.848 138.128,175.070 138.940 C 175.293 139.752,175.481 140.303,175.488 140.163 C 175.526 139.379,173.769 134.667,173.438 134.667 C 173.392 134.667,173.650 135.296,174.010 136.065 M170.783 136.748 C 170.935 137.068,171.089 137.300,171.125 137.263 C 171.202 137.187,170.696 136.167,170.582 136.167 C 170.540 136.167,170.630 136.428,170.783 136.748 M175.539 141.000 C 175.539 141.321,175.573 141.452,175.615 141.292 C 175.657 141.131,175.657 140.869,175.615 140.708 C 175.573 140.548,175.539 140.679,175.539 141.000 M172.545 142.167 C 172.545 142.579,172.578 142.748,172.618 142.542 C 172.657 142.335,172.657 141.998,172.618 141.792 C 172.578 141.585,172.545 141.754,172.545 142.167 M175.723 143.333 C 175.723 144.021,175.752 144.302,175.788 143.958 C 175.824 143.615,175.824 143.052,175.788 142.708 C 175.752 142.365,175.723 142.646,175.723 143.333 M172.545 144.167 C 172.545 144.579,172.578 144.748,172.618 144.542 C 172.657 144.335,172.657 143.998,172.618 143.792 C 172.578 143.585,172.545 143.754,172.545 144.167 M175.539 145.667 C 175.539 145.987,175.573 146.119,175.615 145.958 C 175.657 145.798,175.657 145.535,175.615 145.375 C 175.573 145.215,175.539 145.346,175.539 145.667 M174.889 148.539 C 174.691 149.297,174.479 150.067,174.419 150.250 C 174.328 150.523,174.339 150.535,174.480 150.319 C 174.704 149.976,175.374 147.537,175.303 147.325 C 175.273 147.235,175.087 147.782,174.889 148.539 M173.631 152.006 C 173.299 152.736,173.064 153.333,173.108 153.333 C 173.220 153.333,174.372 150.817,174.296 150.740 C 174.262 150.706,173.963 151.276,173.631 152.006 M170.367 151.587 C 170.168 151.997,170.039 152.333,170.082 152.333 C 170.195 152.333,170.868 150.980,170.793 150.904 C 170.758 150.869,170.566 151.177,170.367 151.587 M169.041 153.833 C 168.567 154.567,168.211 155.167,168.250 155.167 C 168.334 155.167,169.528 153.417,169.814 152.875 C 170.209 152.126,169.884 152.529,169.041 153.833 M164.833 158.872 C 163.779 159.892,163.442 160.269,164.083 159.710 C 165.236 158.706,166.976 156.992,166.827 157.008 C 166.785 157.013,165.887 157.852,164.833 158.872 M168.667 159.296 L 167.250 160.722 168.451 159.677 C 169.385 158.863,170.424 157.733,170.129 157.852 C 170.104 157.862,169.446 158.512,168.667 159.296 M166.075 161.708 L 165.417 162.417 166.125 161.758 C 166.784 161.145,166.910 161.000,166.784 161.000 C 166.757 161.000,166.438 161.319,166.075 161.708 M163.862 163.571 C 161.890 165.300,161.633 165.629,163.448 164.099 C 164.825 162.939,165.487 162.316,165.312 162.343 C 165.278 162.349,164.625 162.901,163.862 163.571 M159.208 163.186 C 158.640 163.550,158.456 163.794,158.958 163.518 C 159.341 163.308,159.940 162.845,159.833 162.841 C 159.787 162.840,159.506 162.995,159.208 163.186 M157.460 164.226 C 156.166 164.968,155.998 165.196,157.250 164.511 C 158.161 164.012,158.684 163.659,158.492 163.672 C 158.450 163.674,157.986 163.924,157.460 164.226 M143.839 165.156 C 143.565 165.668,143.617 167.779,143.907 167.890 C 144.750 168.213,151.022 167.989,150.481 167.655 C 150.364 167.583,150.134 167.595,149.971 167.682 C 149.805 167.771,148.401 167.821,146.795 167.796 L 143.917 167.750 143.866 166.757 C 143.789 165.268,143.889 165.032,144.626 164.955 L 145.250 164.889 144.631 164.861 C 144.171 164.841,143.967 164.916,143.839 165.156 M148.633 164.957 C 149.394 164.988,150.594 164.988,151.300 164.957 C 152.006 164.926,151.383 164.901,149.917 164.901 C 148.450 164.901,147.872 164.927,148.633 164.957 M160.961 165.802 C 160.527 166.048,160.170 166.311,160.169 166.384 C 160.168 166.458,160.333 166.402,160.537 166.259 C 160.741 166.117,161.053 166.000,161.232 166.000 C 161.410 166.000,161.507 165.951,161.447 165.891 C 161.387 165.832,161.469 165.684,161.628 165.563 C 162.079 165.221,161.823 165.312,160.961 165.802 M159.514 166.653 C 159.338 166.828,159.151 166.928,159.097 166.875 C 159.044 166.822,159.000 166.870,159.000 166.982 C 159.000 167.094,158.923 167.139,158.829 167.081 C 158.735 167.023,158.672 167.037,158.689 167.113 C 158.706 167.188,158.662 167.381,158.592 167.542 C 158.277 168.262,158.961 168.747,160.663 169.011 C 161.348 169.117,162.689 169.423,163.643 169.691 C 164.597 169.959,165.408 170.147,165.446 170.110 C 165.555 170.000,161.859 169.027,160.583 168.829 C 158.660 168.531,158.204 167.980,159.174 167.129 C 159.453 166.884,159.733 166.685,159.795 166.688 C 159.857 166.690,159.935 166.611,159.968 166.512 C 160.059 166.239,159.869 166.298,159.514 166.653 M138.993 167.833 L 138.917 168.750 137.825 169.015 C 137.225 169.160,136.588 169.372,136.409 169.485 C 136.089 169.688,136.090 169.690,136.417 169.574 C 136.600 169.509,137.200 169.349,137.750 169.218 C 139.049 168.908,139.201 168.744,139.129 167.734 L 139.070 166.917 138.993 167.833 M155.000 169.000 C 153.762 169.632,152.807 170.153,152.877 170.158 C 153.054 170.170,157.333 168.017,157.333 167.915 C 157.333 167.801,157.482 167.732,155.000 169.000 M132.403 168.655 C 131.938 169.013,131.422 169.518,131.257 169.778 C 130.997 170.188,131.031 170.173,131.520 169.664 C 131.830 169.341,132.383 168.838,132.750 168.544 C 133.697 167.787,133.419 167.876,132.403 168.655 M168.500 168.250 C 168.729 168.381,168.992 168.488,169.083 168.488 C 169.175 168.488,169.063 168.381,168.833 168.250 C 168.604 168.119,168.342 168.012,168.250 168.012 C 168.158 168.012,168.271 168.119,168.500 168.250 M146.959 169.127 C 146.157 169.455,145.529 169.751,145.563 169.786 C 145.635 169.858,148.667 168.666,148.667 168.566 C 148.667 168.448,148.438 168.523,146.959 169.127 M170.651 169.177 C 171.422 169.540,172.080 169.809,172.113 169.776 C 172.184 169.705,169.575 168.496,169.381 168.509 C 169.309 168.515,169.881 168.815,170.651 169.177 M134.086 170.997 C 133.730 171.362,133.471 171.685,133.511 171.716 C 133.551 171.746,133.874 171.448,134.230 171.052 C 135.042 170.149,134.949 170.114,134.086 170.997 M151.667 170.583 C 151.438 170.714,151.325 170.822,151.417 170.822 C 151.508 170.822,151.771 170.714,152.000 170.583 C 152.229 170.452,152.342 170.345,152.250 170.345 C 152.158 170.345,151.896 170.452,151.667 170.583 M173.667 170.575 C 173.667 170.621,173.892 170.774,174.167 170.917 C 174.442 171.059,174.667 171.138,174.667 171.092 C 174.667 171.046,174.442 170.892,174.167 170.750 C 173.892 170.608,173.667 170.529,173.667 170.575 M134.958 172.118 C 135.165 172.157,135.502 172.157,135.708 172.118 C 135.915 172.078,135.746 172.045,135.333 172.045 C 134.921 172.045,134.752 172.078,134.958 172.118 M194.214 172.485 C 193.845 172.752,193.374 173.221,193.167 173.527 C 192.845 174.003,192.884 173.983,193.437 173.384 C 193.792 172.999,194.346 172.530,194.667 172.343 C 194.987 172.155,195.168 172.001,195.067 172.001 C 194.966 172.000,194.582 172.218,194.214 172.485 M199.000 172.219 C 199.000 172.248,199.244 172.491,199.542 172.760 L 200.083 173.250 199.594 172.708 C 199.138 172.203,199.000 172.090,199.000 172.219 M131.538 173.861 C 132.170 174.464,133.397 175.010,134.071 174.989 C 134.261 174.983,134.005 174.867,133.502 174.732 C 132.567 174.481,132.075 174.226,131.324 173.603 C 131.089 173.409,131.185 173.525,131.538 173.861 M172.333 173.225 C 172.333 173.263,172.765 173.551,173.292 173.866 C 173.819 174.180,174.456 174.572,174.708 174.738 C 174.960 174.903,175.167 174.999,175.167 174.951 C 175.167 174.903,174.698 174.568,174.125 174.208 C 172.912 173.444,172.333 173.127,172.333 173.225 M200.274 173.949 C 200.419 174.294,200.635 175.028,200.755 175.580 C 200.875 176.132,200.979 176.385,200.987 176.143 C 201.003 175.607,200.386 173.552,200.168 173.418 C 200.082 173.364,200.130 173.604,200.274 173.949 M178.833 173.862 C 179.526 174.560,180.856 175.676,180.417 175.189 C 180.142 174.885,179.617 174.405,179.250 174.123 C 178.883 173.840,178.696 173.723,178.833 173.862 M196.807 174.682 L 196.417 175.027 196.817 174.771 C 197.106 174.588,197.305 174.562,197.526 174.680 C 197.695 174.771,197.833 174.808,197.833 174.762 C 197.833 174.422,197.161 174.370,196.807 174.682 M138.500 174.770 L 137.417 174.992 138.359 174.913 C 138.878 174.870,139.478 174.764,139.693 174.678 C 140.213 174.469,139.818 174.500,138.500 174.770 M135.213 175.123 C 135.652 175.157,136.327 175.157,136.713 175.122 C 137.100 175.087,136.742 175.059,135.917 175.059 C 135.092 175.060,134.775 175.088,135.213 175.123 M175.333 175.052 C 175.333 175.093,175.609 175.337,175.945 175.594 C 176.282 175.850,176.504 175.975,176.440 175.871 C 176.308 175.658,175.333 174.936,175.333 175.052 M195.928 176.357 C 195.601 177.485,195.163 180.372,195.186 181.250 C 195.195 181.617,195.307 181.047,195.435 179.985 C 195.563 178.923,195.810 177.498,195.984 176.819 C 196.350 175.384,196.309 175.042,195.928 176.357 M201.062 178.417 C 201.063 179.425,201.090 179.816,201.123 179.286 C 201.157 178.755,201.156 177.930,201.123 177.452 C 201.089 176.974,201.062 177.408,201.062 178.417 M179.089 178.375 C 179.812 179.177,180.433 179.833,180.468 179.833 C 180.590 179.833,179.189 178.244,178.484 177.583 C 178.094 177.217,178.366 177.573,179.089 178.375 M183.675 178.973 C 183.877 179.279,184.444 180.291,184.935 181.223 C 185.425 182.154,185.828 182.854,185.830 182.777 C 185.837 182.499,184.160 179.404,183.739 178.917 L 183.306 178.417 183.675 178.973 M198.056 179.667 C 198.056 180.354,198.085 180.635,198.121 180.292 C 198.157 179.948,198.157 179.385,198.121 179.042 C 198.085 178.698,198.056 178.979,198.056 179.667 M200.767 181.600 C 200.704 182.210,200.687 182.743,200.729 182.784 C 200.770 182.826,200.857 182.363,200.922 181.756 C 200.987 181.148,201.004 180.616,200.960 180.571 C 200.916 180.527,200.829 180.990,200.767 181.600 M194.956 183.833 C 194.890 184.887,194.846 186.425,194.859 187.250 C 194.876 188.282,194.928 187.814,195.026 185.750 C 195.105 184.100,195.148 182.563,195.123 182.333 C 195.098 182.104,195.023 182.779,194.956 183.833 M190.205 182.833 C 190.205 183.154,190.240 183.285,190.282 183.125 C 190.323 182.965,190.323 182.702,190.282 182.542 C 190.240 182.381,190.205 182.512,190.205 182.833 M200.519 183.250 C 200.508 183.433,200.311 184.363,200.080 185.316 C 199.849 186.269,199.691 187.080,199.730 187.118 C 199.848 187.237,200.691 183.493,200.613 183.197 C 200.554 182.975,200.535 182.986,200.519 183.250 M190.042 184.083 C 190.044 184.450,190.078 184.580,190.118 184.373 C 190.158 184.166,190.156 183.866,190.115 183.706 C 190.073 183.547,190.040 183.717,190.042 184.083 M183.386 184.483 C 183.586 184.932,183.773 185.238,183.801 185.162 C 183.855 185.019,183.212 183.667,183.091 183.667 C 183.052 183.667,183.185 184.034,183.386 184.483 M189.750 186.531 C 189.685 187.476,189.661 188.438,189.696 188.667 C 189.732 188.896,189.817 188.155,189.886 187.020 C 189.955 185.885,189.979 184.924,189.939 184.884 C 189.900 184.844,189.814 185.585,189.750 186.531 M183.905 188.981 C 183.913 191.476,183.961 192.340,184.064 191.862 C 184.151 191.460,184.146 189.992,184.053 188.297 L 183.894 185.417 183.905 188.981 M199.429 187.762 C 199.367 188.006,199.349 188.238,199.389 188.277 C 199.428 188.317,199.510 188.149,199.571 187.905 C 199.633 187.661,199.651 187.429,199.611 187.389 C 199.572 187.350,199.490 187.518,199.429 187.762 M229.922 188.197 C 228.079 189.168,225.624 193.143,225.676 195.072 C 225.681 195.262,225.828 194.871,226.003 194.205 C 226.684 191.605,228.359 189.179,230.097 188.275 C 230.548 188.041,230.842 187.849,230.750 187.848 C 230.658 187.848,230.286 188.005,229.922 188.197 M204.961 188.486 C 204.662 188.754,204.454 188.997,204.500 189.028 C 204.546 189.058,204.834 188.840,205.140 188.542 C 205.833 187.868,205.699 187.827,204.961 188.486 M207.848 188.436 C 208.069 188.722,208.284 188.926,208.324 188.890 C 208.365 188.853,208.184 188.619,207.922 188.370 L 207.445 187.917 207.848 188.436 M238.417 188.667 C 238.775 189.033,239.105 189.333,239.151 189.333 C 239.197 189.333,238.941 189.033,238.583 188.667 C 238.225 188.300,237.895 188.000,237.849 188.000 C 237.803 188.000,238.059 188.300,238.417 188.667 M189.570 192.500 C 189.570 194.287,189.594 195.019,189.624 194.125 C 189.654 193.231,189.654 191.769,189.624 190.875 C 189.594 189.981,189.570 190.713,189.570 192.500 M194.699 190.958 C 194.681 191.898,194.732 192.667,194.811 192.667 C 194.969 192.667,195.712 190.990,195.603 190.880 C 195.566 190.843,195.396 191.174,195.226 191.615 L 194.917 192.417 194.824 190.833 L 194.730 189.250 194.699 190.958 M233.596 189.581 C 233.236 189.709,232.673 190.095,232.346 190.438 L 231.750 191.062 232.447 190.459 C 233.831 189.260,235.997 189.109,236.718 190.162 C 236.873 190.389,237.000 190.493,237.000 190.395 C 237.000 189.476,235.140 189.031,233.596 189.581 M217.750 189.807 C 217.475 189.975,217.140 190.256,217.005 190.431 C 216.802 190.695,216.831 190.689,217.172 190.396 C 218.425 189.317,220.214 189.410,221.152 190.602 C 221.343 190.846,221.500 190.974,221.500 190.887 C 221.500 190.686,220.695 189.932,220.219 189.687 C 219.652 189.396,218.317 189.461,217.750 189.807 M203.917 190.833 C 203.853 191.121,203.836 191.392,203.879 191.434 C 203.921 191.477,204.004 191.272,204.063 190.979 C 204.121 190.686,204.138 190.416,204.100 190.378 C 204.063 190.340,203.980 190.545,203.917 190.833 M237.057 191.917 C 237.058 192.650,237.087 192.929,237.122 192.537 C 237.157 192.145,237.157 191.545,237.121 191.204 C 237.085 190.863,237.057 191.183,237.057 191.917 M216.325 191.516 C 216.134 191.892,216.005 192.228,216.040 192.262 C 216.075 192.297,216.267 191.990,216.466 191.580 C 216.921 190.645,216.798 190.590,216.325 191.516 M221.627 195.213 C 221.651 197.433,221.693 199.700,221.720 200.250 C 221.747 200.800,221.778 199.112,221.790 196.500 C 221.801 193.887,221.759 191.621,221.697 191.463 C 221.634 191.305,221.603 192.993,221.627 195.213 M231.313 191.925 C 231.128 192.341,231.001 192.748,231.030 192.827 C 231.060 192.907,231.242 192.566,231.437 192.070 C 231.866 190.974,231.778 190.872,231.313 191.925 M239.887 192.500 C 239.887 193.096,239.917 193.340,239.954 193.042 C 239.991 192.744,239.991 192.256,239.954 191.958 C 239.917 191.660,239.887 191.904,239.887 192.500 M183.533 193.283 C 183.429 193.622,183.372 193.927,183.405 193.961 C 183.439 193.995,183.557 193.750,183.667 193.417 C 183.777 193.084,183.834 192.779,183.795 192.739 C 183.755 192.699,183.637 192.944,183.533 193.283 M215.348 194.432 C 215.149 195.226,215.017 195.906,215.055 195.944 C 215.092 195.981,215.286 195.362,215.485 194.568 C 215.684 193.774,215.816 193.094,215.779 193.056 C 215.741 193.019,215.548 193.638,215.348 194.432 M203.552 194.083 C 203.553 194.633,203.584 194.838,203.621 194.539 C 203.658 194.239,203.657 193.789,203.619 193.539 C 203.581 193.288,203.551 193.533,203.552 194.083 M230.673 194.297 C 230.566 194.931,230.508 195.780,230.543 196.183 L 230.608 196.917 230.638 196.072 C 230.654 195.608,230.747 194.794,230.845 194.264 C 230.943 193.734,230.988 193.266,230.945 193.223 C 230.902 193.180,230.780 193.663,230.673 194.297 M236.367 194.754 C 236.168 195.164,236.039 195.500,236.082 195.500 C 236.195 195.500,236.868 194.146,236.793 194.071 C 236.758 194.036,236.566 194.343,236.367 194.754 M182.867 194.920 C 182.668 195.331,182.539 195.667,182.582 195.667 C 182.695 195.667,183.368 194.313,183.293 194.238 C 183.258 194.203,183.066 194.510,182.867 194.920 M185.209 196.723 C 184.819 197.471,184.619 197.933,184.764 197.750 C 185.084 197.345,186.043 195.487,185.969 195.414 C 185.940 195.386,185.598 195.974,185.209 196.723 M196.360 195.924 C 196.081 196.537,196.134 196.667,196.436 196.110 C 196.577 195.850,196.662 195.606,196.623 195.568 C 196.585 195.530,196.467 195.690,196.360 195.924 M225.532 197.250 C 225.498 198.872,225.339 200.465,225.077 201.815 C 224.998 202.222,225.003 202.226,225.156 201.879 C 225.447 201.219,225.685 198.795,225.627 197.083 L 225.570 195.417 225.532 197.250 M235.326 196.375 C 235.017 196.765,234.895 196.977,235.056 196.848 C 235.359 196.604,236.074 195.667,235.956 195.667 C 235.919 195.667,235.636 195.985,235.326 196.375 M189.688 197.264 C 189.700 198.081,189.766 199.313,189.835 200.000 C 189.911 200.770,189.926 200.226,189.874 198.583 C 189.828 197.117,189.762 195.885,189.728 195.847 C 189.694 195.809,189.676 196.447,189.688 197.264 M203.396 197.917 C 203.396 198.925,203.424 199.316,203.457 198.786 C 203.490 198.255,203.490 197.430,203.456 196.952 C 203.422 196.474,203.395 196.908,203.396 197.917 M214.681 196.931 C 214.573 197.358,214.516 197.738,214.554 197.777 C 214.593 197.815,214.712 197.497,214.819 197.069 C 214.927 196.642,214.984 196.262,214.946 196.223 C 214.907 196.185,214.788 196.503,214.681 196.931 M195.537 197.795 C 194.893 199.173,194.810 199.641,194.983 200.917 C 195.114 201.892,195.118 201.880,195.110 200.417 C 195.102 199.043,195.147 198.828,195.645 197.858 C 195.944 197.276,196.160 196.771,196.125 196.736 C 196.090 196.701,195.826 197.178,195.537 197.795 M207.731 199.083 C 207.732 200.275,207.758 200.741,207.790 200.118 C 207.823 199.496,207.822 198.521,207.790 197.951 C 207.757 197.382,207.731 197.892,207.731 199.083 M216.939 197.892 C 216.869 198.245,216.851 198.573,216.898 198.620 C 217.024 198.746,217.207 197.910,217.131 197.555 C 217.092 197.371,217.015 197.505,216.939 197.892 M236.993 198.771 C 236.584 199.195,235.807 199.832,235.266 200.188 C 234.725 200.543,234.343 200.833,234.418 200.833 C 234.731 200.833,236.147 199.784,236.994 198.925 C 237.495 198.416,237.867 198.000,237.821 198.000 C 237.774 198.000,237.402 198.347,236.993 198.771 M179.330 199.625 L 177.917 201.083 179.375 199.670 C 180.177 198.893,180.833 198.237,180.833 198.212 C 180.833 198.091,180.642 198.271,179.330 199.625 M183.573 199.279 C 183.316 199.615,183.191 199.838,183.295 199.773 C 183.509 199.642,184.230 198.667,184.114 198.667 C 184.073 198.667,183.830 198.942,183.573 199.279 M244.250 198.921 C 245.085 199.222,245.199 199.221,244.667 198.917 C 244.438 198.786,244.100 198.679,243.917 198.680 C 243.733 198.681,243.883 198.789,244.250 198.921 M216.366 200.051 C 216.154 200.710,215.942 201.362,215.895 201.500 C 215.818 201.722,215.828 201.722,215.985 201.500 C 216.230 201.153,216.873 199.201,216.805 199.009 C 216.775 198.922,216.577 199.391,216.366 200.051 M182.491 200.625 L 181.917 201.250 182.542 200.676 C 183.123 200.141,183.243 200.000,183.116 200.000 C 183.088 200.000,182.807 200.281,182.491 200.625 M217.214 201.250 C 217.216 201.708,217.248 201.876,217.286 201.623 C 217.325 201.369,217.324 200.994,217.284 200.789 C 217.244 200.584,217.213 200.792,217.214 201.250 M233.250 201.088 C 232.883 201.209,232.733 201.310,232.917 201.313 C 233.100 201.316,233.475 201.215,233.750 201.089 C 234.380 200.801,234.123 200.800,233.250 201.088 M190.048 202.083 C 190.049 202.542,190.081 202.709,190.120 202.456 C 190.158 202.203,190.157 201.828,190.117 201.623 C 190.078 201.418,190.046 201.625,190.048 202.083 M221.875 201.917 C 221.877 202.283,221.911 202.414,221.951 202.206 C 221.991 201.999,221.990 201.699,221.948 201.540 C 221.906 201.380,221.874 201.550,221.875 201.917 M230.833 201.646 C 230.833 201.861,231.648 203.667,231.746 203.667 C 231.792 203.667,231.643 203.245,231.415 202.729 C 230.921 201.614,230.932 201.709,231.292 201.615 C 231.511 201.558,231.491 201.534,231.208 201.519 C 231.002 201.509,230.833 201.566,230.833 201.646 M215.449 202.419 C 215.297 202.738,215.206 203.000,215.248 203.000 C 215.362 203.000,215.868 201.980,215.792 201.903 C 215.756 201.867,215.602 202.099,215.449 202.419 M241.783 202.419 C 241.630 202.738,241.540 203.000,241.582 203.000 C 241.696 203.000,242.202 201.980,242.125 201.903 C 242.089 201.867,241.935 202.099,241.783 202.419 M195.186 202.514 C 195.197 202.827,195.267 203.308,195.342 203.583 C 195.431 203.912,195.446 203.741,195.385 203.083 C 195.282 201.981,195.155 201.617,195.186 202.514 M224.700 202.950 C 224.596 203.289,224.538 203.594,224.572 203.628 C 224.606 203.661,224.723 203.416,224.833 203.083 C 224.943 202.750,225.001 202.445,224.961 202.406 C 224.922 202.366,224.804 202.611,224.700 202.950 M180.154 202.932 C 179.932 203.169,179.056 203.893,178.208 204.539 C 177.360 205.186,176.667 205.750,176.667 205.794 C 176.667 205.886,176.619 205.920,178.500 204.466 C 179.796 203.465,180.847 202.500,180.641 202.500 C 180.596 202.500,180.376 202.694,180.154 202.932 M190.209 203.583 C 190.211 203.950,190.245 204.080,190.285 203.873 C 190.324 203.666,190.323 203.366,190.281 203.206 C 190.239 203.047,190.207 203.217,190.209 203.583 M240.916 203.875 C 240.662 204.265,240.108 204.916,239.685 205.322 C 239.136 205.850,239.068 205.956,239.447 205.694 C 240.088 205.250,241.746 203.167,241.458 203.167 C 241.414 203.167,241.170 203.485,240.916 203.875 M173.957 203.729 C 173.156 204.221,172.933 204.454,173.583 204.117 C 174.106 203.847,174.811 203.344,174.667 203.344 C 174.621 203.344,174.301 203.517,173.957 203.729 M226.182 204.709 C 225.869 205.363,225.309 206.240,224.937 206.658 L 224.262 207.417 224.896 206.833 C 225.245 206.512,225.830 205.706,226.197 205.041 C 226.564 204.376,226.931 203.874,227.013 203.925 C 227.096 203.976,227.118 203.901,227.064 203.759 C 226.900 203.331,226.776 203.465,226.182 204.709 M232.009 204.140 C 232.408 204.978,234.392 206.833,234.891 206.833 C 234.987 206.833,234.732 206.621,234.324 206.361 C 233.614 205.909,232.752 205.050,232.120 204.165 C 231.841 203.775,231.835 203.773,232.009 204.140 M195.536 204.500 C 195.535 204.729,195.593 205.104,195.667 205.333 C 195.846 205.894,195.846 205.288,195.667 204.583 C 195.552 204.134,195.539 204.126,195.536 204.500 M210.750 204.511 C 210.194 204.868,209.499 204.924,208.947 204.657 C 208.596 204.488,208.594 204.490,208.907 204.741 C 209.447 205.174,211.333 204.794,211.333 204.252 C 211.333 204.139,211.328 204.141,210.750 204.511 M171.167 205.250 C 170.204 205.745,169.474 206.153,169.545 206.158 C 169.722 206.170,173.000 204.516,173.000 204.415 C 173.000 204.302,173.102 204.255,171.167 205.250 M190.372 204.750 C 190.373 205.025,190.430 205.475,190.500 205.750 C 190.676 206.443,190.684 205.761,190.510 204.917 C 190.394 204.356,190.372 204.330,190.372 204.750 M243.083 204.833 C 242.941 205.108,242.862 205.333,242.908 205.333 C 242.954 205.333,243.108 205.108,243.250 204.833 C 243.392 204.558,243.471 204.333,243.425 204.333 C 243.379 204.333,243.226 204.558,243.083 204.833 M213.601 205.149 C 213.252 205.505,212.674 205.930,212.315 206.091 C 211.957 206.253,211.694 206.416,211.732 206.454 C 211.884 206.606,213.122 205.821,213.742 205.181 C 214.105 204.806,214.363 204.500,214.318 204.500 C 214.272 204.500,213.949 204.792,213.601 205.149 M222.333 204.604 C 222.333 205.213,223.468 205.542,223.847 205.042 C 224.034 204.794,224.032 204.781,223.834 204.958 C 223.471 205.282,222.879 205.205,222.593 204.796 C 222.450 204.593,222.333 204.506,222.333 204.604 M204.703 205.470 C 205.423 206.089,206.035 206.500,206.236 206.500 C 206.326 206.500,206.065 206.288,205.658 206.028 C 205.250 205.769,204.814 205.432,204.688 205.278 C 204.562 205.125,204.391 205.000,204.307 205.000 C 204.223 205.000,204.401 205.212,204.703 205.470 M218.667 206.061 C 218.987 206.409,219.400 206.773,219.583 206.870 C 219.767 206.966,219.879 207.010,219.833 206.968 C 218.767 205.976,218.137 205.486,218.667 206.061 M241.842 206.552 L 240.935 207.583 241.730 206.833 C 242.388 206.213,242.989 205.468,242.798 205.511 C 242.771 205.517,242.342 205.985,241.842 206.552 M195.862 206.083 C 195.859 206.267,195.921 206.567,196.000 206.750 C 196.183 207.175,196.183 206.737,196.000 206.167 C 195.893 205.832,195.866 205.815,195.862 206.083 M203.616 206.419 C 203.463 206.738,203.373 207.000,203.415 207.000 C 203.529 207.000,204.035 205.980,203.959 205.903 C 203.923 205.867,203.768 206.099,203.616 206.419 M175.290 206.562 C 174.490 207.055,174.266 207.287,174.917 206.951 C 175.439 206.680,176.144 206.177,176.000 206.177 C 175.954 206.177,175.635 206.350,175.290 206.562 M199.784 207.792 C 199.234 208.570,199.163 208.717,199.555 208.269 C 200.081 207.667,200.754 206.667,200.632 206.667 C 200.603 206.667,200.221 207.173,199.784 207.792 M235.458 206.951 C 235.665 206.991,236.002 206.991,236.208 206.951 C 236.415 206.911,236.246 206.879,235.833 206.879 C 235.421 206.879,235.252 206.911,235.458 206.951 M201.810 209.375 C 201.602 209.673,200.980 210.404,200.429 211.000 L 199.426 212.083 200.371 211.181 C 201.237 210.354,202.468 208.833,202.272 208.833 C 202.226 208.833,202.019 209.077,201.810 209.375 M198.449 209.422 C 197.932 209.876,197.521 209.942,197.166 209.625 C 196.968 209.448,196.966 209.460,197.153 209.708 C 197.475 210.133,197.921 210.067,198.539 209.505 C 198.838 209.233,199.046 209.010,199.000 209.010 C 198.954 209.010,198.706 209.196,198.449 209.422 M235.627 209.285 C 235.834 209.324,236.134 209.323,236.294 209.281 C 236.453 209.239,236.283 209.207,235.917 209.209 C 235.550 209.211,235.420 209.245,235.627 209.285 M159.750 209.500 C 159.540 209.590,159.509 209.643,159.667 209.643 C 159.804 209.643,160.067 209.579,160.250 209.500 C 160.460 209.410,160.491 209.357,160.333 209.357 C 160.196 209.357,159.933 209.421,159.750 209.500 M157.950 209.953 C 157.419 210.092,157.017 210.239,157.057 210.279 C 157.132 210.354,159.195 209.858,159.319 209.735 C 159.443 209.614,158.940 209.694,157.950 209.953 M166.583 210.500 C 165.575 210.852,164.829 211.146,164.926 211.154 C 165.132 211.169,168.510 210.045,168.636 209.919 C 168.804 209.751,168.394 209.867,166.583 210.500 M155.917 210.500 C 155.492 210.683,155.930 210.683,156.500 210.500 C 156.835 210.393,156.851 210.366,156.583 210.362 C 156.400 210.359,156.100 210.421,155.917 210.500 M154.417 210.833 C 153.968 210.948,153.959 210.961,154.333 210.964 C 154.563 210.965,154.938 210.907,155.167 210.833 C 155.727 210.654,155.122 210.654,154.417 210.833 M192.833 211.395 C 193.154 211.743,193.567 212.106,193.750 212.203 C 193.933 212.299,194.046 212.344,194.000 212.301 C 192.934 211.310,192.304 210.820,192.833 211.395 M152.042 211.282 C 152.202 211.323,152.465 211.323,152.625 211.282 C 152.785 211.240,152.654 211.205,152.333 211.205 C 152.012 211.205,151.881 211.240,152.042 211.282 M163.917 211.333 C 163.707 211.424,163.676 211.477,163.833 211.477 C 163.971 211.477,164.233 211.412,164.417 211.333 C 164.627 211.243,164.658 211.190,164.500 211.190 C 164.362 211.190,164.100 211.255,163.917 211.333 M144.460 212.285 C 144.668 212.324,144.968 212.323,145.127 212.281 C 145.286 212.239,145.117 212.207,144.750 212.209 C 144.383 212.211,144.253 212.245,144.460 212.285 M136.542 212.948 C 136.702 212.990,136.965 212.990,137.125 212.948 C 137.285 212.906,137.154 212.872,136.833 212.872 C 136.512 212.872,136.381 212.906,136.542 212.948 M132.621 213.120 C 132.917 213.157,133.442 213.158,133.788 213.122 C 134.134 213.086,133.892 213.055,133.250 213.055 C 132.608 213.054,132.325 213.083,132.621 213.120 M196.375 213.115 C 196.535 213.157,196.798 213.157,196.958 213.115 C 197.119 213.073,196.987 213.039,196.667 213.039 C 196.346 213.039,196.215 213.073,196.375 213.115 M124.417 214.667 C 124.207 214.757,124.176 214.810,124.333 214.810 C 124.471 214.810,124.733 214.745,124.917 214.667 C 125.127 214.576,125.158 214.523,125.000 214.523 C 124.862 214.523,124.600 214.588,124.417 214.667 M122.365 215.281 C 121.694 215.512,121.175 215.730,121.210 215.766 C 121.246 215.801,121.907 215.612,122.679 215.344 C 123.451 215.077,123.971 214.859,123.833 214.859 C 123.696 214.859,123.035 215.049,122.365 215.281 M146.127 215.118 C 146.334 215.158,146.634 215.156,146.794 215.115 C 146.953 215.073,146.783 215.040,146.417 215.042 C 146.050 215.044,145.920 215.078,146.127 215.118 M143.955 215.287 C 144.250 215.324,144.775 215.324,145.121 215.288 C 145.467 215.252,145.225 215.222,144.583 215.221 C 143.942 215.221,143.659 215.250,143.955 215.287 M137.917 215.783 C 137.642 215.818,136.554 215.913,135.500 215.996 L 133.583 216.145 135.833 216.053 C 138.235 215.954,140.649 215.710,139.167 215.717 C 138.754 215.719,138.192 215.748,137.917 215.783 M130.167 216.337 C 129.662 216.400,130.150 216.416,131.250 216.372 C 132.350 216.328,133.281 216.264,133.319 216.229 C 133.427 216.133,131.195 216.209,130.167 216.337 M118.792 216.761 C 118.356 216.988,118.000 217.210,118.000 217.256 C 118.000 217.330,119.650 216.551,119.819 216.397 C 120.026 216.209,119.484 216.401,118.792 216.761 M127.333 216.667 C 126.500 216.842,127.355 216.849,128.333 216.675 C 129.010 216.555,129.026 216.542,128.500 216.543 C 128.179 216.543,127.654 216.599,127.333 216.667 M114.061 220.208 C 113.515 220.781,112.898 221.512,112.690 221.833 L 112.311 222.417 112.780 221.833 C 113.038 221.512,113.692 220.781,114.234 220.208 C 114.776 219.635,115.182 219.167,115.136 219.167 C 115.090 219.167,114.606 219.635,114.061 220.208 M117.442 221.255 C 116.741 221.853,116.167 222.388,116.167 222.442 C 116.167 222.496,116.673 222.106,117.292 221.574 C 118.799 220.279,118.920 220.167,118.811 220.167 C 118.760 220.167,118.144 220.656,117.442 221.255 M111.499 223.875 C 111.141 224.631,110.806 225.475,110.755 225.750 C 110.704 226.027,110.801 225.879,110.974 225.417 C 111.145 224.958,111.522 224.115,111.812 223.542 C 112.101 222.969,112.296 222.500,112.245 222.500 C 112.193 222.500,111.858 223.119,111.499 223.875 M113.280 226.758 C 112.888 227.579,112.943 227.719,113.353 226.943 C 113.539 226.590,113.661 226.272,113.625 226.236 C 113.589 226.200,113.434 226.435,113.280 226.758 M112.362 229.193 C 112.088 230.049,111.740 231.537,111.587 232.500 C 111.434 233.463,111.272 234.362,111.228 234.500 C 111.177 234.658,111.203 234.689,111.298 234.583 C 111.381 234.492,111.580 233.592,111.739 232.583 C 111.898 231.575,112.244 230.078,112.507 229.257 C 112.771 228.436,112.958 227.736,112.923 227.701 C 112.888 227.665,112.635 228.337,112.362 229.193 M110.052 230.917 C 110.053 231.467,110.084 231.672,110.121 231.372 C 110.158 231.072,110.157 230.622,110.119 230.372 C 110.081 230.122,110.051 230.367,110.052 230.917 " stroke="none" fill="#8dc1e7" fill-rule="evenodd"></path></g></svg>
